<svg xmlns="http://www.w3.org/2000/svg" fill="none" viewBox="0 42 294 68" height="68" width="294">
<g clip-path="url(#clip0_15575_12644)">
<path fill="black" d="M208.543 98.7135V59.983H219.046V65.656C221.357 61.5938 225.629 59.1426 230.951 59.1426C239.144 59.1426 244.115 64.8156 244.115 73.9905V98.7135H233.612V76.3015C233.612 70.6987 231.441 68.0371 227.239 68.0371C222.338 68.0371 219.046 71.819 219.046 77.6322V98.7133H208.543V98.7135ZM189.112 99.6941C176.368 99.6941 167.895 91.2896 167.895 79.4534C167.895 67.6171 176.088 59.0026 187.502 59.0026C197.725 59.0026 205.008 66.0063 205.848 76.4417L179.449 85.9667C181.479 89.2586 185.331 91.1494 190.583 91.1494C194.715 91.1494 198.706 90.099 201.647 88.0677V96.5422C198.776 98.4333 194.014 99.6939 189.112 99.6939V99.6941ZM177.838 78.5429L195.344 72.1695C194.224 69.0179 191.353 67.1268 187.502 67.1268C181.34 67.1268 177.208 71.8893 177.838 78.5429ZM147.266 99.8341C131.79 99.8341 120.656 88.9784 120.656 74.2705C120.656 59.5626 132.21 48.5669 147.966 48.5669C154.198 48.5669 160.08 50.1778 163.302 52.6991V62.5043C159.94 59.4228 154.759 57.6018 149.437 57.6018C138.583 57.6018 131.58 64.3253 131.58 74.2707C131.58 84.2161 138.302 90.8695 147.896 90.8695C150.347 90.8695 153.078 90.3792 155.318 89.4687V78.3328H144.815V69.9284H164.842V94.1613C160.29 97.7331 154.058 99.8343 147.266 99.8343L147.266 99.8341ZM88.0997 109.569L95.4524 93.7409L80.2571 59.983H91.6712L101.055 81.6244L110.368 59.983H121.012L98.9538 109.569H88.1L88.0997 109.569ZM65.3784 99.6941C52.6338 99.6941 44.1607 91.2896 44.1607 79.4534C44.1607 67.6171 52.3537 59.0026 63.7678 59.0026C73.9914 59.0026 81.274 66.0063 82.1143 76.4417L55.7148 85.9667C57.7455 89.2586 61.5969 91.1494 66.8488 91.1494C70.9803 91.1494 74.9716 90.099 77.9127 88.0677V96.5422C75.0417 98.4333 70.28 99.6939 65.3782 99.6939L65.3784 99.6941ZM54.1042 78.5429L71.6105 72.1695C70.4901 69.0179 67.6191 67.1268 63.7676 67.1268C57.6054 67.1268 53.4738 71.8893 54.104 78.5429H54.1042ZM0 98.7135V49.6875H10.6438V68.1072H30.3908V49.6875H41.0345V98.7135H30.3908V77.4922H10.6438V98.7135H0Z"></path>
<path fill="url(#paint0_linear_15575_12644)" d="M258.452 57.5789C258.452 57.5789 239.798 43.2893 236.955 41.1366C235.372 39.9381 233.651 37.1305 234.009 34.9221C234.276 33.2804 235.224 32.4374 236.509 31.9891C240.511 30.5925 253.209 26.207 256.622 25.1104C258.504 24.5056 261.489 25.059 263.719 26.8821C265.486 28.326 266.883 30.442 266.901 33.1706C266.941 39.3443 267.268 53.7927 267.268 55.6516C267.268 56.7117 266.822 58.5093 264.733 59.1391C262.7 59.752 260.17 58.8933 258.452 57.5786V57.5789Z"></path>
<path fill="url(#paint1_linear_15575_12644)" d="M263.581 27.004C265.347 28.4479 266.686 30.4571 266.704 33.1858C266.744 39.3595 267.268 53.7927 267.268 55.6516C267.268 53.7927 267.143 39.0984 267.103 32.9247C267.062 26.751 260.32 23.5424 256.949 24.7608C253.577 25.9793 240.511 30.5928 236.509 31.9891C240.511 30.5926 253.272 26.3693 256.684 25.2724C258.566 24.6677 261.35 25.1807 263.581 27.004H263.581Z"></path>
<path fill="#AB81E9" d="M263.581 27.004C265.347 28.4479 266.686 30.4571 266.704 33.1858C266.744 39.3595 267.268 53.7927 267.268 55.6516C267.268 53.7927 267.143 39.0984 267.103 32.9247C267.062 26.751 260.32 23.5424 256.949 24.7608C253.577 25.9793 240.511 30.5928 236.509 31.9891C240.511 30.5926 253.272 26.3693 256.684 25.2724C258.566 24.6677 261.35 25.1807 263.581 27.004H263.581Z"></path>
<path fill="url(#paint2_linear_15575_12644)" d="M258.452 57.5789C258.452 57.5789 239.798 43.2893 236.955 41.1366C235.372 39.9381 233.651 37.1305 234.009 34.9221C234.276 33.2804 235.224 32.4374 236.509 31.9891C240.511 30.5925 253.209 26.207 256.622 25.1104C258.504 24.5056 261.489 25.059 263.719 26.8821C265.486 28.326 267.061 30.4634 267.092 33.1918C267.122 35.8791 267.131 40.1172 267.164 44.2038C267.207 49.5239 267.25 54.5885 267.247 55.6516C267.244 56.7117 266.822 58.5093 264.733 59.1391C262.7 59.752 260.17 58.8933 258.452 57.5786V57.5789Z"></path>
<path fill="url(#paint3_radial_15575_12644)" d="M263.707 26.8707C265.475 28.313 266.874 30.4277 266.894 33.1561C266.941 39.3298 267.282 53.7777 267.283 55.6368C267.281 53.7779 267.143 39.0838 267.096 32.9101C267.05 26.7364 260.304 23.5344 256.934 24.756C253.564 25.9779 240.502 30.6039 236.501 32.0043C240.502 30.6039 253.196 26.2061 256.608 25.1059C258.489 24.4994 261.475 25.0496 263.707 26.8707Z"></path>
<path fill="url(#paint4_radial_15575_12644)" d="M263.707 26.8707C265.475 28.313 266.874 30.4277 266.894 33.1561C266.941 39.3298 267.282 53.7777 267.283 55.6368C267.281 53.7779 267.143 39.0838 267.096 32.9101C267.05 26.7364 260.304 23.5344 256.934 24.756C253.564 25.9779 240.502 30.6039 236.501 32.0043C240.502 30.6039 253.196 26.2061 256.608 25.1059C258.489 24.4994 261.475 25.0496 263.707 26.8707Z"></path>
<path fill="url(#paint5_linear_15575_12644)" d="M258.547 24.6537C259.418 24.6537 260.376 24.8473 261.319 25.2133C262.301 25.5945 263.243 26.1568 264.043 26.8389C264.925 27.5897 265.622 28.4643 266.117 29.4387C266.665 30.517 266.947 31.6901 266.955 32.9253C266.972 35.4914 267.003 39.5654 267.034 43.5055C267.078 49.1933 267.12 54.5655 267.12 55.6513C267.12 56.0276 267.06 56.7664 266.655 57.4835C266.24 58.2196 265.579 58.7289 264.691 58.9966C264.26 59.1263 263.791 59.1921 263.295 59.1921C262.507 59.1921 261.64 59.0227 260.789 58.7021C259.986 58.4001 259.209 57.9706 258.543 57.4605C258.356 57.3177 239.856 43.1461 237.045 41.0178C236.249 40.4154 235.442 39.4141 234.886 38.3395C234.586 37.7585 234.369 37.1811 234.241 36.6228C234.103 36.0178 234.074 35.4536 234.157 34.9456C234.28 34.1865 234.552 33.5853 234.988 33.1079C235.376 32.6825 235.89 32.3624 236.559 32.1291C240.676 30.6924 253.631 26.1178 257 24.9001C257.453 24.7365 257.973 24.6535 258.547 24.6535M258.547 24.5051C257.966 24.5051 257.424 24.5889 256.949 24.7605C253.578 25.9789 240.511 30.5924 236.509 31.9888C235.225 32.4371 234.276 33.2798 234.01 34.9218C233.651 37.1302 235.372 39.9378 236.955 41.1363C239.798 43.289 258.452 57.5786 258.452 57.5786C259.782 58.5962 261.599 59.3407 263.295 59.3407C263.79 59.3407 264.274 59.2772 264.733 59.1388C266.823 58.509 267.268 56.7114 267.268 55.6513C267.268 53.7923 267.144 39.098 267.103 32.9243C267.069 27.6203 262.087 24.5049 258.547 24.5049L258.547 24.5051Z"></path>
<path fill="url(#paint6_linear_15575_12644)" d="M270.415 32.481C270.415 30.7907 271.06 28.0157 272.575 25.8642C273.427 24.6539 274.502 23.5484 275.615 23.0421C276.48 22.6483 276.894 22.5831 277.921 22.7952C277.921 22.7952 290.362 25.4628 291.121 25.6169C291.879 25.771 292.707 26.2858 292.817 27.8675C292.928 29.4491 292.511 31.9487 290.74 34.5266C288.97 37.1045 278.19 52.6757 276.836 54.6285C275.482 56.5812 273.449 57.8281 272.295 57.5241C270.83 57.1382 270.517 55.7883 270.528 54.8569C270.549 53.1384 270.415 32.4812 270.415 32.4812L270.415 32.481Z"></path>
<path fill="url(#paint7_linear_15575_12644)" d="M272.294 57.2371C270.937 56.8685 271.011 55.8293 270.998 54.8567C270.974 53.0597 270.885 32.481 270.885 32.481C270.885 30.7907 271.469 28.3437 272.984 26.1921C273.836 24.9818 274.601 24.0666 275.649 23.4641C276.473 22.9902 277.273 22.8789 278.3 23.0909C278.3 23.0909 290.362 25.4628 291.121 25.6169C290.362 25.4628 277.921 22.7952 277.921 22.7952C276.894 22.5831 276.48 22.6483 275.614 23.0421C274.501 23.5484 273.427 24.6539 272.575 25.8642C271.059 28.0157 270.415 30.7907 270.415 32.481C270.415 32.481 270.549 53.1384 270.528 54.8567C270.517 55.7881 270.829 57.138 272.295 57.5239C273.449 57.8279 275.482 56.5813 276.836 54.6283C275.482 56.5813 273.447 57.5497 272.295 57.2369L272.294 57.2371Z"></path>
<path fill="#00BA97" d="M272.294 57.2371C270.937 56.8685 271.011 55.8293 270.998 54.8567C270.974 53.0597 270.885 32.481 270.885 32.481C270.885 30.7907 271.469 28.3437 272.984 26.1921C273.836 24.9818 274.601 24.0666 275.649 23.4641C276.473 22.9902 277.273 22.8789 278.3 23.0909C278.3 23.0909 290.362 25.4628 291.121 25.6169C290.362 25.4628 277.921 22.7952 277.921 22.7952C276.894 22.5831 276.48 22.6483 275.614 23.0421C274.501 23.5484 273.427 24.6539 272.575 25.8642C271.059 28.0157 270.415 30.7907 270.415 32.481C270.415 32.481 270.549 53.1384 270.528 54.8567C270.517 55.7881 270.829 57.138 272.295 57.5239C273.449 57.8279 275.482 56.5813 276.836 54.6283C275.482 56.5813 273.447 57.5497 272.295 57.2369L272.294 57.2371Z"></path>
<path fill="url(#paint8_linear_15575_12644)" d="M270.885 32.4808C270.885 30.7906 271.468 28.3435 272.984 26.192C273.836 24.9816 274.601 24.0664 275.649 23.4639C276.473 22.99 277.273 22.8787 278.3 23.0907C278.3 23.0907 290.362 25.4626 291.12 25.6167C291.879 25.7708 292.707 26.2856 292.817 27.8673C292.927 29.449 292.511 31.9486 290.74 34.5264C288.969 37.1043 278.189 52.6755 276.835 54.6283C275.482 56.5811 273.446 57.8367 272.294 57.5239C270.937 57.1553 271.011 55.8291 270.998 54.8567C270.974 53.0597 270.885 32.481 270.885 32.481V32.4808Z"></path>
<path fill="url(#paint9_radial_15575_12644)" d="M272.294 57.2371C270.937 56.8685 271.011 55.8293 270.998 54.8567C270.974 53.0597 270.885 32.481 270.885 32.481C270.885 30.7907 271.469 28.3437 272.984 26.1921C273.836 24.9818 274.601 24.0666 275.649 23.4641C276.473 22.9902 277.273 22.8789 278.3 23.0909C278.3 23.0909 290.362 25.4628 291.121 25.6169C290.362 25.4628 277.921 22.7952 277.921 22.7952C276.894 22.5831 276.48 22.6483 275.614 23.0421C274.501 23.5484 273.427 24.6539 272.575 25.8642C271.059 28.0157 270.415 30.7907 270.415 32.481C270.415 32.481 270.549 53.1384 270.528 54.8567C270.517 55.7881 270.829 57.138 272.295 57.5239C273.449 57.8279 275.482 56.5813 276.836 54.6283C275.482 56.5813 273.447 57.5497 272.295 57.2369L272.294 57.2371Z"></path>
<path fill="url(#paint10_radial_15575_12644)" d="M272.294 57.2371C270.937 56.8685 271.011 55.8293 270.998 54.8567C270.974 53.0597 270.885 32.481 270.885 32.481C270.885 30.7907 271.469 28.3437 272.984 26.1921C273.836 24.9818 274.601 24.0666 275.649 23.4641C276.473 22.9902 277.273 22.8789 278.3 23.0909C278.3 23.0909 290.362 25.4628 291.121 25.6169C290.362 25.4628 277.921 22.7952 277.921 22.7952C276.894 22.5831 276.48 22.6483 275.614 23.0421C274.501 23.5484 273.427 24.6539 272.575 25.8642C271.059 28.0157 270.415 30.7907 270.415 32.481C270.415 32.481 270.549 53.1384 270.528 54.8567C270.517 55.7881 270.829 57.138 272.295 57.5239C273.449 57.8279 275.482 56.5813 276.836 54.6283C275.482 56.5813 273.447 57.5497 272.295 57.2369L272.294 57.2371Z"></path>
<path fill="url(#paint11_linear_15575_12644)" d="M276.98 22.676V22.8421C277.221 22.8421 277.5 22.8776 277.886 22.9574C278.015 22.985 290.337 25.6271 291.087 25.7795C291.502 25.8638 291.84 26.0453 292.089 26.3186C292.415 26.6754 292.604 27.2004 292.651 27.8787C292.695 28.4986 292.673 29.5106 292.324 30.8111C291.979 32.0956 291.4 33.3348 290.603 34.4945C288.843 37.0572 278.137 52.522 276.699 54.5957C276.131 55.4156 275.401 56.1568 274.644 56.683C273.919 57.1875 273.217 57.4654 272.669 57.4654C272.549 57.4654 272.438 57.4519 272.337 57.4253C271.729 57.2652 271.281 56.9138 271.005 56.3805C270.739 55.8675 270.689 55.3034 270.694 54.9207C270.715 53.2223 270.582 32.7934 270.58 32.5425C270.58 31.636 270.755 30.5056 271.06 29.4408C271.429 28.1472 271.982 26.9562 272.658 25.9972C273.598 24.6618 274.701 23.6398 275.683 23.1929C276.183 22.9653 276.538 22.8419 276.979 22.8419V22.6758M276.98 22.676C276.526 22.676 276.16 22.7937 275.614 23.0419C274.501 23.5482 273.374 24.6913 272.522 25.9016C271.007 28.0532 270.415 30.8528 270.415 32.5431C270.415 32.5431 270.549 53.2005 270.528 54.9188C270.517 55.8503 270.829 57.2002 272.295 57.586C272.411 57.6168 272.536 57.6315 272.669 57.6315C273.852 57.6315 275.618 56.4463 276.836 54.6904C278.19 52.7374 288.97 37.1664 290.74 34.5885C292.511 32.0106 292.928 29.4487 292.817 27.8671C292.707 26.2856 291.879 25.7706 291.121 25.6165C290.362 25.4624 277.921 22.7948 277.921 22.7948C277.542 22.7163 277.246 22.6758 276.98 22.6758L276.98 22.676Z"></path>
<path fill="url(#paint12_linear_15575_12644)" d="M232.875 27.8354C232.875 26.7022 233.629 25.0007 234.62 23.8159C234.62 23.8159 249.523 5.92109 250.531 4.70901C251.538 3.49693 253.556 1.93628 255.097 1.28714C256.637 0.637995 257.649 0.79192 258.112 1.79337C258.574 2.79461 262.472 11.3481 262.936 12.3658C263.376 13.329 263.297 14.1751 262.387 15.9846C261.235 18.2785 258.17 20.9669 256.099 21.7226C253.823 22.5527 237.313 28.5556 235.587 29.1814C233.86 29.8069 232.875 28.8117 232.875 27.8354Z"></path>
<path fill="url(#paint13_linear_15575_12644)" d="M262.936 12.3656C262.472 11.3477 258.573 2.79438 258.111 1.79314C257.79 1.09747 257.204 0.811014 256.359 0.918409C257.106 0.838226 257.569 1.13984 257.883 1.82015C258.345 2.82139 262.104 10.9636 262.554 11.9877C262.917 12.8145 262.923 13.6769 262.082 15.3317C260.973 17.5128 257.838 20.459 255.767 21.2147C253.492 22.0448 236.875 28.1523 235.149 28.778C233.423 29.4037 232.986 28.5938 232.986 27.6172C232.986 26.9477 233.211 26.1559 233.599 25.3757C233.156 26.2431 232.875 27.1447 232.875 27.8354C232.875 28.8117 233.86 29.8069 235.587 29.181C237.313 28.5553 253.823 22.5525 256.099 21.7222C258.17 20.9665 261.234 18.2781 262.387 15.9842C263.297 14.1747 263.376 13.3288 262.936 12.3654L262.936 12.3656Z"></path>
<path fill="#128414" d="M262.936 12.3656C262.472 11.3477 258.573 2.79438 258.111 1.79314C257.79 1.09747 257.204 0.811014 256.359 0.918409C257.106 0.838226 257.569 1.13984 257.883 1.82015C258.345 2.82139 262.104 10.9636 262.554 11.9877C262.917 12.8145 262.923 13.6769 262.082 15.3317C260.973 17.5128 257.838 20.459 255.767 21.2147C253.492 22.0448 236.875 28.1523 235.149 28.778C233.423 29.4037 232.986 28.5938 232.986 27.6172C232.986 26.9477 233.211 26.1559 233.599 25.3757C233.156 26.2431 232.875 27.1447 232.875 27.8354C232.875 28.8117 233.86 29.8069 235.587 29.181C237.313 28.5553 253.823 22.5525 256.099 21.7222C258.17 20.9665 261.234 18.2781 262.387 15.9842C263.297 14.1747 263.376 13.3288 262.936 12.3654L262.936 12.3656Z"></path>
<path fill="url(#paint14_linear_15575_12644)" d="M232.986 27.6174C232.986 26.4843 233.629 25.0009 234.62 23.8158C234.62 23.8158 249.524 5.92104 250.531 4.70896C251.538 3.49688 253.556 1.93623 255.097 1.28709C256.637 0.637942 257.421 0.818871 257.883 1.82011C258.346 2.82135 262.104 10.9636 262.554 11.9877C262.918 12.8144 262.923 13.6769 262.082 15.3317C260.974 17.5128 257.839 20.459 255.768 21.2147C253.492 22.0447 236.876 28.1523 235.15 28.778C233.423 29.4037 232.987 28.5937 232.987 27.6172L232.986 27.6174Z"></path>
<path fill="url(#paint15_radial_15575_12644)" d="M262.936 12.3656C262.472 11.3477 258.573 2.79438 258.111 1.79314C257.79 1.09747 257.204 0.811014 256.359 0.918409C257.106 0.838226 257.569 1.13984 257.883 1.82015C258.345 2.82139 262.104 10.9636 262.554 11.9877C262.917 12.8145 262.923 13.6769 262.082 15.3317C260.973 17.5128 257.838 20.459 255.767 21.2147C253.492 22.0448 236.875 28.1523 235.149 28.778C233.423 29.4037 232.986 28.5938 232.986 27.6172C232.986 26.9477 233.211 26.1559 233.599 25.3757C233.156 26.2431 232.875 27.1447 232.875 27.8354C232.875 28.8117 233.86 29.8069 235.587 29.181C237.313 28.5553 253.823 22.5525 256.099 21.7222C258.17 20.9665 261.234 18.2781 262.387 15.9842C263.297 14.1747 263.376 13.3288 262.936 12.3654L262.936 12.3656Z"></path>
<path fill="#128414" d="M262.936 12.3656C262.472 11.3477 258.573 2.79438 258.111 1.79314C257.79 1.09747 257.204 0.811014 256.359 0.918409C257.106 0.838226 257.569 1.13984 257.883 1.82015C258.345 2.82139 262.104 10.9636 262.554 11.9877C262.917 12.8145 262.923 13.6769 262.082 15.3317C260.973 17.5128 257.838 20.459 255.767 21.2147C253.492 22.0448 236.875 28.1523 235.149 28.778C233.423 29.4037 232.986 28.5938 232.986 27.6172C232.986 26.9477 233.211 26.1559 233.599 25.3757C233.156 26.2431 232.875 27.1447 232.875 27.8354C232.875 28.8117 233.86 29.8069 235.587 29.181C237.313 28.5553 253.823 22.5525 256.099 21.7222C258.17 20.9665 261.234 18.2781 262.387 15.9842C263.297 14.1747 263.376 13.3288 262.936 12.3654L262.936 12.3656Z"></path>
<path fill="url(#paint16_radial_15575_12644)" d="M262.936 12.3656C262.472 11.3477 258.573 2.79438 258.111 1.79314C257.79 1.09747 257.204 0.811014 256.359 0.918409C257.106 0.838226 257.569 1.13984 257.883 1.82015C258.345 2.82139 262.104 10.9636 262.554 11.9877C262.917 12.8145 262.923 13.6769 262.082 15.3317C260.973 17.5128 257.838 20.459 255.767 21.2147C253.492 22.0448 236.875 28.1523 235.149 28.778C233.423 29.4037 232.986 28.5938 232.986 27.6172C232.986 26.9477 233.211 26.1559 233.599 25.3757C233.156 26.2431 232.875 27.1447 232.875 27.8354C232.875 28.8117 233.86 29.8069 235.587 29.181C237.313 28.5553 253.823 22.5525 256.099 21.7222C258.17 20.9665 261.234 18.2781 262.387 15.9842C263.297 14.1747 263.376 13.3288 262.936 12.3654L262.936 12.3656Z"></path>
<path fill="url(#paint17_linear_15575_12644)" d="M256.689 1.10421C257.278 1.10421 257.631 1.39604 257.872 1.91827C258.245 2.72736 260.9 8.40018 262.151 11.1444C262.443 11.7859 262.658 12.257 262.747 12.4519C262.966 12.9313 263.03 13.3432 262.962 13.8289C262.888 14.3569 262.653 14.993 262.202 15.8912C261.93 16.4321 261.542 17.0106 261.049 17.6105C260.581 18.1805 260.042 18.7408 259.448 19.2759C258.259 20.3473 257.012 21.1681 256.027 21.5272C253.841 22.3249 237.314 28.3338 235.516 28.9858C235.181 29.1072 234.863 29.1686 234.571 29.1686C234.119 29.1686 233.735 29.0226 233.461 28.7463C233.221 28.5041 233.083 28.1722 233.083 27.8355C233.083 27.3195 233.255 26.6421 233.566 25.9281C233.878 25.2146 234.308 24.5118 234.779 23.9487C234.928 23.7698 249.694 6.03978 250.69 4.84162C251.172 4.26144 251.919 3.57283 252.739 2.95256C253.597 2.30279 254.463 1.77911 255.177 1.47853C255.766 1.23009 256.275 1.10421 256.689 1.10421M256.689 0.896484C256.244 0.896484 255.712 1.02756 255.096 1.28722C253.556 1.93636 251.538 3.49701 250.53 4.70909C249.523 5.92117 234.619 23.816 234.619 23.816C233.629 25.0008 232.875 26.7021 232.875 27.8355C232.875 28.6001 233.48 29.3764 234.571 29.3764C234.873 29.3764 235.212 29.317 235.587 29.1813C237.313 28.5556 253.823 22.5528 256.099 21.7227C258.17 20.967 261.234 18.2786 262.387 15.9847C263.297 14.1752 263.376 13.3293 262.936 12.3659C262.472 11.348 258.574 2.79469 258.112 1.79345C257.834 1.19229 257.359 0.896692 256.689 0.896692V0.896484Z"></path>
<path fill="url(#paint18_radial_15575_12644)" d="M262.058 1.9337C261.764 1.3026 261.721 1.13676 261.887 0.901473C262.053 0.666188 262.117 0.388012 262.936 0.548545C263.754 0.709078 265.516 1.40533 268.533 3.64463C271.55 5.88392 284.839 15.7655 286.936 17.3206C289.033 18.8757 290.557 20.5564 290.855 21.2761C291.097 21.8396 290.985 21.9593 290.818 22.1578C290.678 22.3247 290.588 22.4983 290.104 22.4491C290.104 22.4491 288.377 22.0728 286.335 21.5982C284.293 21.1235 279.125 19.9377 276.626 19.3556C274.126 18.7735 271.32 16.6784 270.33 15.8897C269.672 15.3658 268.66 14.5482 267.619 13.2985C267.2 12.7946 266.915 12.2954 266.543 11.4817C265.411 9.00798 262.058 1.93391 262.058 1.93391L262.058 1.9337Z"></path>
<path fill="url(#paint19_radial_15575_12644)" d="M290.681 21.0139C290.767 21.2577 290.816 21.7032 290.691 21.8224C290.577 21.9319 290.368 21.89 289.988 21.8014C289.988 21.8014 288.533 21.3941 286.491 20.9195C284.449 20.4448 279.279 19.1916 276.779 18.6095C274.279 18.0274 271.805 16.0383 270.815 15.2496C270.157 14.7257 269.367 14.0948 268.326 12.845C267.907 12.3412 267.277 11.1644 266.89 10.3578C265.705 7.8914 262.532 1.59344 262.532 1.59344C262.238 0.962336 262.29 0.780154 262.432 0.659243C262.502 0.599401 262.659 0.584287 263.043 0.649848C263.839 0.785668 265.414 1.36755 268.254 3.43957C265.407 1.36224 263.728 0.703972 262.936 0.548545C262.117 0.388012 262.053 0.666188 261.887 0.901473C261.721 1.13676 261.764 1.3026 262.058 1.9337C262.058 1.9337 265.411 9.00778 266.543 11.4815C266.916 12.2952 267.2 12.7944 267.62 13.2983C268.66 14.548 269.672 15.3656 270.33 15.8895C271.32 16.6782 274.126 18.7733 276.626 19.3554C279.125 19.9375 284.293 21.1233 286.335 21.598C288.377 22.0726 290.104 22.4488 290.104 22.4488C290.588 22.4981 290.679 22.3245 290.818 22.1576C290.985 21.9589 290.922 21.5771 290.681 21.0136L290.681 21.0139Z"></path>
<path fill="#0079FF" d="M290.681 21.0139C290.767 21.2577 290.816 21.7032 290.691 21.8224C290.577 21.9319 290.368 21.89 289.988 21.8014C289.988 21.8014 288.533 21.3941 286.491 20.9195C284.449 20.4448 279.279 19.1916 276.779 18.6095C274.279 18.0274 271.805 16.0383 270.815 15.2496C270.157 14.7257 269.367 14.0948 268.326 12.845C267.907 12.3412 267.277 11.1644 266.89 10.3578C265.705 7.8914 262.532 1.59344 262.532 1.59344C262.238 0.962336 262.29 0.780154 262.432 0.659243C262.502 0.599401 262.659 0.584287 263.043 0.649848C263.839 0.785668 265.414 1.36755 268.254 3.43957C265.407 1.36224 263.728 0.703972 262.936 0.548545C262.117 0.388012 262.053 0.666188 261.887 0.901473C261.721 1.13676 261.764 1.3026 262.058 1.9337C262.058 1.9337 265.411 9.00778 266.543 11.4815C266.916 12.2952 267.2 12.7944 267.62 13.2983C268.66 14.548 269.672 15.3656 270.33 15.8895C271.32 16.6782 274.126 18.7733 276.626 19.3554C279.125 19.9375 284.293 21.1233 286.335 21.598C288.377 22.0726 290.104 22.4488 290.104 22.4488C290.588 22.4981 290.679 22.3245 290.818 22.1576C290.985 21.9589 290.922 21.5771 290.681 21.0136L290.681 21.0139Z"></path>
<g filter="url(#filter0_i_15575_12644)">
<path fill="url(#paint20_linear_15575_12644)" d="M262.298 1.65664C262.004 1.02554 262.018 0.746338 262.16 0.625428C262.23 0.565585 262.669 0.518202 263.049 0.603574C263.876 0.789229 265.516 1.40522 268.533 3.64451C271.55 5.8838 284.753 15.8056 286.85 17.3606C288.947 18.9157 290.415 20.5124 290.713 21.2321C290.799 21.476 290.948 21.8595 290.823 21.9788C290.708 22.0882 290.568 22.1044 290.188 22.0157C290.188 22.0157 288.447 21.5601 286.405 21.0854C284.363 20.6108 279.27 19.3906 276.771 18.8086C274.271 18.2265 271.757 16.2184 270.766 15.4296C270.109 14.9057 269.214 14.2266 268.174 12.9769C267.754 12.473 267.252 11.9775 266.88 11.1638C265.748 8.69007 262.298 1.65684 262.298 1.65684L262.298 1.65664Z"></path>
<path fill-opacity="0.2" fill="url(#paint21_linear_15575_12644)" d="M262.298 1.65664C262.004 1.02554 262.018 0.746338 262.16 0.625428C262.23 0.565585 262.669 0.518202 263.049 0.603574C263.876 0.789229 265.516 1.40522 268.533 3.64451C271.55 5.8838 284.753 15.8056 286.85 17.3606C288.947 18.9157 290.415 20.5124 290.713 21.2321C290.799 21.476 290.948 21.8595 290.823 21.9788C290.708 22.0882 290.568 22.1044 290.188 22.0157C290.188 22.0157 288.447 21.5601 286.405 21.0854C284.363 20.6108 279.27 19.3906 276.771 18.8086C274.271 18.2265 271.757 16.2184 270.766 15.4296C270.109 14.9057 269.214 14.2266 268.174 12.9769C267.754 12.473 267.252 11.9775 266.88 11.1638C265.748 8.69007 262.298 1.65684 262.298 1.65684L262.298 1.65664Z"></path>
</g>
<path fill="url(#paint22_radial_15575_12644)" d="M290.557 21.0141C290.643 21.258 290.693 21.7034 290.568 21.8227C290.453 21.9322 290.245 21.8903 289.864 21.8016C289.864 21.8016 288.41 21.3944 286.368 20.9197C284.326 20.4451 279.155 19.1919 276.656 18.6098C274.156 18.0277 271.682 16.0386 270.692 15.2498C270.034 14.7259 269.284 13.9725 268.244 12.7227C267.824 12.2189 267.215 11.1646 266.828 10.358C265.643 7.89164 262.49 1.59368 262.49 1.59368C262.196 0.962576 262.167 0.780393 262.308 0.659483C262.379 0.59964 262.535 0.584527 262.92 0.650088C263.716 0.785908 265.291 1.36779 268.131 3.43981C265.284 1.36248 263.607 0.691957 262.812 0.548785C262.095 0.4195 262.044 0.711769 261.87 0.955836C261.736 1.14353 261.764 1.30304 262.058 1.93415C262.058 1.93415 265.335 8.84156 266.467 11.3153C266.839 12.129 267.2 12.7946 267.619 13.2985C268.66 14.5482 269.585 15.2827 270.242 15.8066C271.233 16.5954 274.003 18.7327 276.502 19.3148C279.002 19.8969 284.169 21.0827 286.212 21.5574C288.254 22.032 289.98 22.4287 289.98 22.4287C290.464 22.4779 290.555 22.3247 290.695 22.1578C290.862 21.9591 290.799 21.5774 290.557 21.0139L290.557 21.0141Z"></path>
<path fill="#00E1FF" d="M290.557 21.0141C290.643 21.258 290.693 21.7034 290.568 21.8227C290.453 21.9321 290.245 21.8903 289.864 21.8016C289.864 21.8016 288.41 21.3944 286.368 20.9197C284.326 20.4451 279.155 19.1919 276.656 18.6098C274.156 18.0277 271.682 16.0386 270.692 15.2498C270.034 14.7259 269.284 13.9725 268.244 12.7227C267.824 12.2189 267.215 11.1646 266.828 10.358C265.643 7.89164 262.49 1.59368 262.49 1.59368C262.196 0.962576 262.167 0.780393 262.308 0.659483C262.379 0.59964 262.535 0.584527 262.92 0.650088C263.716 0.785908 265.291 1.36779 268.131 3.43981C265.284 1.36248 263.607 0.691957 262.812 0.548785C262.095 0.4195 262.044 0.711769 261.87 0.955836C261.736 1.14353 261.764 1.30304 262.058 1.93415C262.058 1.93415 265.335 8.84156 266.467 11.3153C266.839 12.129 267.2 12.7946 267.619 13.2985C268.66 14.5482 269.585 15.2827 270.242 15.8066C271.233 16.5953 274.003 18.7327 276.502 19.3148C279.002 19.8969 284.169 21.0827 286.212 21.5574C288.254 22.032 289.98 22.4287 289.98 22.4287C290.464 22.4779 290.643 22.2573 290.783 22.0904C290.95 21.8917 290.859 21.5603 290.557 21.0139L290.557 21.0141Z"></path>
<path fill="#00E1FF" d="M290.557 21.0141C290.643 21.258 290.693 21.7034 290.568 21.8227C290.453 21.9322 290.245 21.8903 289.864 21.8016C289.864 21.8016 288.41 21.3944 286.368 20.9197C284.326 20.4451 279.155 19.1919 276.656 18.6098C274.156 18.0277 271.682 16.0386 270.692 15.2498C270.034 14.7259 269.284 13.9725 268.244 12.7227C267.824 12.2189 267.215 11.1646 266.828 10.358C265.643 7.89164 262.49 1.59368 262.49 1.59368C262.196 0.962576 262.167 0.780393 262.308 0.659483C262.379 0.59964 262.535 0.584527 262.92 0.650088C263.716 0.785908 265.291 1.36779 268.131 3.43981C265.284 1.36248 263.607 0.691957 262.812 0.548785C262.095 0.4195 262.044 0.711769 261.87 0.955836C261.736 1.14353 261.764 1.30304 262.058 1.93415C262.058 1.93415 265.335 8.84156 266.467 11.3153C266.839 12.129 267.2 12.7946 267.619 13.2985C268.66 14.5482 269.585 15.2827 270.242 15.8066C271.233 16.5954 274.003 18.7327 276.502 19.3148C279.002 19.8969 284.169 21.0827 286.212 21.5574C288.254 22.032 289.98 22.4287 289.98 22.4287C290.464 22.4779 290.555 22.3247 290.695 22.1578C290.862 21.9591 290.799 21.5774 290.557 21.0139L290.557 21.0141Z"></path>
<path fill="url(#paint23_radial_15575_12644)" d="M290.557 21.0141C290.643 21.258 290.693 21.7034 290.568 21.8227C290.453 21.9322 290.245 21.8903 289.864 21.8016C289.864 21.8016 288.41 21.3944 286.368 20.9197C284.326 20.4451 279.155 19.1919 276.656 18.6098C274.156 18.0277 271.682 16.0386 270.692 15.2498C270.034 14.7259 269.284 13.9725 268.244 12.7227C267.824 12.2189 267.215 11.1646 266.828 10.358C265.643 7.89164 262.49 1.59368 262.49 1.59368C262.196 0.962576 262.167 0.780393 262.308 0.659483C262.379 0.59964 262.535 0.584527 262.92 0.650088C263.716 0.785908 265.291 1.36779 268.131 3.43981C265.284 1.36248 263.607 0.691957 262.812 0.548785C262.095 0.4195 262.044 0.711769 261.87 0.955836C261.736 1.14353 261.764 1.30304 262.058 1.93415C262.058 1.93415 265.335 8.84156 266.467 11.3153C266.839 12.129 267.2 12.7946 267.619 13.2985C268.66 14.5482 269.585 15.2827 270.242 15.8066C271.233 16.5954 274.003 18.7327 276.502 19.3148C279.002 19.8969 284.169 21.0827 286.212 21.5574C288.254 22.032 289.98 22.4287 289.98 22.4287C290.464 22.4779 290.555 22.3247 290.695 22.1578C290.862 21.9591 290.799 21.5774 290.557 21.0139L290.557 21.0141Z"></path>
<path fill-opacity="0.7" fill="url(#paint24_linear_15575_12644)" d="M290.557 21.0141C290.643 21.258 290.693 21.7034 290.568 21.8227C290.453 21.9322 290.245 21.8903 289.864 21.8016C289.864 21.8016 288.41 21.3944 286.368 20.9197C284.326 20.4451 279.155 19.1919 276.656 18.6098C274.156 18.0277 271.682 16.0386 270.692 15.2498C270.034 14.7259 269.284 13.9725 268.244 12.7227C267.824 12.2189 267.215 11.1646 266.828 10.358C265.643 7.89164 262.49 1.59368 262.49 1.59368C262.196 0.962576 262.167 0.780393 262.308 0.659483C262.379 0.59964 262.535 0.584527 262.92 0.650088C263.716 0.785908 265.291 1.36779 268.131 3.43981C265.284 1.36248 263.607 0.691957 262.812 0.548785C262.095 0.4195 262.044 0.711769 261.87 0.955836C261.736 1.14353 261.764 1.30304 262.058 1.93415C262.058 1.93415 265.335 8.84156 266.467 11.3153C266.839 12.129 267.2 12.7946 267.619 13.2985C268.66 14.5482 269.585 15.2827 270.242 15.8066C271.233 16.5954 274.003 18.7327 276.502 19.3148C279.002 19.8969 284.169 21.0827 286.212 21.5574C288.254 22.032 289.98 22.4287 289.98 22.4287C290.464 22.4779 290.555 22.3247 290.695 22.1578C291.023 21.8161 290.799 21.5774 290.557 21.0139L290.557 21.0141Z"></path>
<path fill="url(#paint25_radial_15575_12644)" d="M290.557 21.0141C290.643 21.258 290.693 21.7034 290.568 21.8227C290.453 21.9322 290.245 21.8903 289.864 21.8016C289.864 21.8016 288.41 21.3944 286.368 20.9197C284.326 20.4451 279.155 19.1919 276.656 18.6098C274.156 18.0277 271.682 16.0386 270.692 15.2498C270.034 14.7259 269.284 13.9725 268.244 12.7227C267.824 12.2189 267.215 11.1646 266.828 10.358C265.643 7.89164 262.49 1.59368 262.49 1.59368C262.196 0.962576 262.167 0.780393 262.308 0.659483C262.379 0.59964 262.535 0.584527 262.92 0.650088C263.716 0.785908 265.291 1.36779 268.131 3.43981C265.284 1.36248 263.607 0.691957 262.812 0.548785C262.095 0.4195 262.044 0.711769 261.87 0.955836C261.736 1.14353 261.764 1.30304 262.058 1.93415C262.058 1.93415 265.335 8.84156 266.467 11.3153C266.839 12.129 267.2 12.7946 267.619 13.2985C268.66 14.5482 269.585 15.2827 270.242 15.8066C271.233 16.5954 274.003 18.7327 276.502 19.3148C279.002 19.8969 284.169 21.0827 286.212 21.5574C288.254 22.032 289.98 22.4287 289.98 22.4287C290.464 22.4779 290.555 22.3247 290.695 22.1578C290.862 21.9591 290.799 21.5774 290.557 21.0139L290.557 21.0141Z"></path>
<path fill="url(#paint26_radial_15575_12644)" d="M290.557 21.0141C290.643 21.258 290.693 21.7034 290.568 21.8227C290.453 21.9322 290.245 21.8903 289.864 21.8016C289.864 21.8016 288.41 21.3944 286.368 20.9197C284.326 20.4451 279.155 19.1919 276.656 18.6098C274.156 18.0277 271.682 16.0386 270.692 15.2498C270.034 14.7259 269.284 13.9725 268.244 12.7227C267.824 12.2189 267.215 11.1646 266.828 10.358C265.643 7.89164 262.49 1.59368 262.49 1.59368C262.196 0.962576 262.167 0.780393 262.308 0.659483C262.379 0.59964 262.535 0.584527 262.92 0.650088C263.716 0.785908 265.291 1.36779 268.131 3.43981C265.284 1.36248 263.607 0.691957 262.812 0.548785C262.095 0.4195 262.044 0.711769 261.87 0.955836C261.736 1.14353 261.764 1.30304 262.058 1.93415C262.058 1.93415 265.335 8.84156 266.467 11.3153C266.839 12.129 267.2 12.7946 267.619 13.2985C268.66 14.5482 269.585 15.2827 270.242 15.8066C271.233 16.5954 274.003 18.7327 276.502 19.3148C279.002 19.8969 284.169 21.0827 286.212 21.5574C288.254 22.032 289.98 22.4287 289.98 22.4287C290.464 22.4779 290.555 22.3247 290.695 22.1578C290.862 21.9591 290.799 21.5774 290.557 21.0139L290.557 21.0141Z"></path>
<path fill="url(#paint27_radial_15575_12644)" d="M290.557 21.0141C290.643 21.258 290.693 21.7034 290.568 21.8227C290.453 21.9322 290.245 21.8903 289.864 21.8016C289.864 21.8016 288.41 21.3944 286.368 20.9197C284.326 20.4451 279.155 19.1919 276.656 18.6098C274.156 18.0277 271.682 16.0386 270.692 15.2498C270.034 14.7259 269.284 13.9725 268.244 12.7227C267.824 12.2189 267.215 11.1646 266.828 10.358C265.643 7.89164 262.49 1.59368 262.49 1.59368C262.196 0.962576 262.167 0.780393 262.308 0.659483C262.379 0.59964 262.535 0.584527 262.92 0.650088C263.716 0.785908 265.291 1.36779 268.131 3.43981C265.284 1.36248 263.607 0.691957 262.812 0.548785C262.095 0.4195 262.044 0.711769 261.87 0.955836C261.736 1.14353 261.764 1.30304 262.058 1.93415C262.058 1.93415 265.335 8.84156 266.467 11.3153C266.839 12.129 267.2 12.7946 267.619 13.2985C268.66 14.5482 269.585 15.2827 270.242 15.8066C271.233 16.5954 274.003 18.7327 276.502 19.3148C279.002 19.8969 284.169 21.0827 286.212 21.5574C288.254 22.032 289.98 22.4287 289.98 22.4287C290.464 22.4779 290.555 22.3247 290.695 22.1578C290.862 21.9591 290.799 21.5774 290.557 21.0139L290.557 21.0141Z"></path>
<path fill="url(#paint28_radial_15575_12644)" d="M290.557 21.0141C290.643 21.258 290.693 21.7034 290.568 21.8227C290.453 21.9322 290.245 21.8903 289.864 21.8016C289.864 21.8016 288.41 21.3944 286.368 20.9197C284.326 20.4451 279.155 19.1919 276.656 18.6098C274.156 18.0277 271.682 16.0386 270.692 15.2498C270.034 14.7259 269.284 13.9725 268.244 12.7227C267.824 12.2189 267.215 11.1646 266.828 10.358C265.643 7.89164 262.49 1.59368 262.49 1.59368C262.196 0.962576 262.167 0.780393 262.308 0.659483C262.379 0.59964 262.535 0.584527 262.92 0.650088C263.716 0.785908 265.291 1.36779 268.131 3.43981C265.284 1.36248 263.607 0.691957 262.812 0.548785C262.095 0.4195 262.044 0.711769 261.87 0.955836C261.736 1.14353 261.764 1.30304 262.058 1.93415C262.058 1.93415 265.335 8.84156 266.467 11.3153C266.839 12.129 267.2 12.7946 267.619 13.2985C268.66 14.5482 269.585 15.2827 270.242 15.8066C271.233 16.5954 274.003 18.7327 276.502 19.3148C279.002 19.8969 284.169 21.0827 286.212 21.5574C288.254 22.032 289.98 22.4287 289.98 22.4287C290.464 22.4779 290.555 22.3247 290.695 22.1578C290.862 21.9591 290.799 21.5774 290.557 21.0139L290.557 21.0141Z"></path>
<path fill="url(#paint29_radial_15575_12644)" d="M290.626 21.0468C290.711 21.2907 290.761 21.7361 290.636 21.8554C290.522 21.9649 290.313 21.923 289.933 21.8344C289.933 21.8344 288.478 21.4271 286.436 20.9524C284.394 20.4778 279.223 19.2246 276.724 18.6425C274.224 18.0604 271.75 16.0713 270.76 15.2825C270.102 14.7586 269.352 14.0052 268.312 12.7555C267.893 12.2516 267.284 11.1973 266.896 10.3908C265.711 7.92435 262.558 1.62639 262.558 1.62639C262.264 0.995291 262.235 0.813108 262.377 0.692198C262.447 0.632355 262.604 0.617242 262.988 0.682803C263.784 0.818623 265.359 1.4005 268.199 3.47252C265.352 1.39519 263.676 0.724672 262.881 0.581499C262.163 0.452215 262.113 0.744483 261.938 0.988551C261.804 1.17625 261.833 1.33576 262.127 1.96686C262.127 1.96686 265.403 8.87428 266.535 11.348C266.907 12.1617 267.268 12.8274 267.688 13.3312C268.728 14.581 269.653 15.3154 270.311 15.8393C271.301 16.6281 274.071 18.7654 276.571 19.3475C279.07 19.9296 284.238 21.1154 286.28 21.5901C288.322 22.0647 290.049 22.4614 290.049 22.4614C290.533 22.5106 290.624 22.3574 290.763 22.1906C290.93 21.9918 290.867 21.6101 290.626 21.0466V21.0468Z"></path>
<path fill="url(#paint30_linear_15575_12644)" d="M262.518 0.664369C262.624 0.664369 262.754 0.679279 262.904 0.708893C263.25 0.776497 263.865 0.962152 264.835 1.46234C265.885 2.00317 267.096 2.78153 268.435 3.77577C269.888 4.85436 273.781 7.74784 277.546 10.5463C281.58 13.545 285.751 16.6456 286.838 17.4517C288.057 18.3557 288.932 19.1869 289.452 19.7251C290.092 20.3873 290.56 20.9906 290.704 21.3386L290.705 21.3394L290.705 21.3402C290.802 21.5659 290.843 21.7248 290.829 21.8259C290.819 21.9003 290.791 21.9569 290.712 22.0513L290.704 22.0607C290.691 22.076 290.679 22.0911 290.667 22.1064C290.568 22.2284 290.463 22.2191 290.225 22.2191C290.185 22.2191 290.142 22.2169 290.095 22.2124C289.77 22.1496 288.313 21.8901 286.372 21.4389C285.453 21.2255 284.058 20.8052 282.409 20.4255C280.34 19.9486 278.038 19.5168 276.663 19.1963C275.603 18.9494 274.369 18.3992 272.997 17.5606C271.85 16.86 270.897 16.1329 270.432 15.7618C269.643 15.134 268.79 14.3675 267.814 13.1955C267.417 12.7133 267.119 12.226 266.733 11.3819C265.615 8.93996 262.252 1.96048 262.206 1.86428C261.902 1.21214 261.918 1.14107 262.021 0.995647C262.041 0.966849 262.06 0.938255 262.077 0.910887C262.176 0.757094 262.236 0.664369 262.518 0.664369ZM262.518 0.500977C262.087 0.500977 262.019 0.714816 261.887 0.901492C261.721 1.13678 261.764 1.30262 262.058 1.93372C262.058 1.93372 265.411 9.0078 266.543 11.4816C266.916 12.2953 267.153 12.8534 267.572 13.3572C268.613 14.607 269.635 15.4298 270.293 15.9536C271.283 16.7424 274.11 18.8793 276.61 19.4613C279.11 20.0434 284.293 21.1233 286.335 21.598C288.377 22.0727 290.104 22.4489 290.104 22.4489C290.161 22.4546 290.212 22.4572 290.259 22.4572C290.61 22.4572 290.695 22.3047 290.818 22.1574C290.985 21.9589 291.097 21.8392 290.856 21.2757C290.557 20.556 289.033 18.8753 286.936 17.3202C284.839 15.7651 271.55 5.88353 268.533 3.64424C265.516 1.40535 263.754 0.708893 262.936 0.548565C262.767 0.515478 262.63 0.500977 262.518 0.500977Z"></path>
<path fill="url(#paint31_linear_15575_12644)" d="M262.518 0.664369C262.624 0.664369 262.754 0.679279 262.904 0.708893C263.25 0.776497 263.865 0.962152 264.835 1.46234C265.885 2.00317 267.096 2.78153 268.435 3.77577C269.888 4.85436 273.781 7.74784 277.546 10.5463C281.58 13.545 285.751 16.6456 286.838 17.4517C288.057 18.3557 288.932 19.1869 289.452 19.7251C290.092 20.3873 290.56 20.9906 290.704 21.3386L290.705 21.3394L290.705 21.3402C290.802 21.5659 290.843 21.7248 290.829 21.8259C290.819 21.9003 290.791 21.9569 290.712 22.0513L290.704 22.0607C290.691 22.076 290.679 22.0911 290.667 22.1064C290.568 22.2284 290.463 22.2191 290.225 22.2191C290.185 22.2191 290.142 22.2169 290.095 22.2124C289.77 22.1496 288.313 21.8901 286.372 21.4389C285.453 21.2255 284.058 20.8052 282.409 20.4255C280.34 19.9486 278.038 19.5168 276.663 19.1963C275.603 18.9494 274.369 18.3992 272.997 17.5606C271.85 16.86 270.897 16.1329 270.432 15.7618C269.643 15.134 268.79 14.3675 267.814 13.1955C267.417 12.7133 267.119 12.226 266.733 11.3819C265.615 8.93996 262.252 1.96048 262.206 1.86428C261.902 1.21214 261.918 1.14107 262.021 0.995647C262.041 0.966849 262.06 0.938255 262.077 0.910887C262.176 0.757094 262.236 0.664369 262.518 0.664369ZM262.518 0.500977C262.087 0.500977 262.019 0.714816 261.887 0.901492C261.721 1.13678 261.764 1.30262 262.058 1.93372C262.058 1.93372 265.411 9.0078 266.543 11.4816C266.916 12.2953 267.153 12.8534 267.572 13.3572C268.613 14.607 269.635 15.4298 270.293 15.9536C271.283 16.7424 274.11 18.8793 276.61 19.4613C279.11 20.0434 284.293 21.1233 286.335 21.598C288.377 22.0727 290.104 22.4489 290.104 22.4489C290.161 22.4546 290.212 22.4572 290.259 22.4572C290.61 22.4572 290.695 22.3047 290.818 22.1574C290.985 21.9589 291.097 21.8392 290.856 21.2757C290.557 20.556 289.033 18.8753 286.936 17.3202C284.839 15.7651 271.55 5.88353 268.533 3.64424C265.516 1.40535 263.754 0.708893 262.936 0.548565C262.767 0.515478 262.63 0.500977 262.518 0.500977Z"></path>
<path fill="url(#paint32_linear_15575_12644)" d="M262.515 0.661611C262.621 0.661611 262.752 0.676626 262.904 0.706449C263.252 0.774528 263.871 0.961488 264.848 1.46519C265.905 2.00982 267.125 2.79365 268.474 3.79489C269.937 4.88106 273.857 7.79488 277.648 10.6131C281.711 13.6328 285.912 16.7552 287.006 17.567C288.233 18.4773 289.115 19.3144 289.639 19.8564C290.283 20.5232 290.754 21.1307 290.899 21.4812L290.9 21.482L290.9 21.4829C290.998 21.7101 290.949 21.8071 290.935 21.9089C290.9 21.983 290.886 22.0327 290.807 22.1278L290.799 22.1372C290.786 22.1527 290.773 22.1679 290.761 22.1833C290.662 22.3061 290.602 22.3803 290.361 22.3803C290.322 22.3803 290.278 22.3781 290.231 22.3735C290.091 22.3429 288.491 22.0365 286.536 21.5822C285.611 21.3673 284.044 21.0059 282.384 20.6235C280.299 20.1433 278.012 19.7377 276.627 19.415C275.559 19.1663 274.317 18.6122 272.935 17.7677C271.781 17.0623 270.821 16.3301 270.352 15.9563C269.558 15.3241 268.629 14.5505 267.646 13.3704C267.252 12.8969 266.975 12.4278 266.586 11.5777C265.46 9.11863 262.247 1.96683 262.201 1.86996C261.895 1.21324 261.911 1.14166 262.014 0.995219C262.035 0.966218 262.053 0.937424 262.071 0.909863C262.171 0.754989 262.231 0.661611 262.515 0.661611ZM262.515 0.49707C262.08 0.49707 262.012 0.712414 261.88 0.900402C261.713 1.13734 261.756 1.30435 262.052 1.93989C262.052 1.93989 265.308 9.19838 266.448 11.6895C266.823 12.5089 267.109 13.0116 267.532 13.519C268.579 14.7776 269.599 15.6009 270.261 16.1284C271.258 16.9228 274.084 19.0326 276.601 19.6188C279.118 20.205 284.443 21.2644 286.499 21.7424C288.556 22.2204 290.205 22.5362 290.205 22.5362C290.262 22.542 290.314 22.5447 290.361 22.5447C290.715 22.5447 290.801 22.391 290.925 22.2427C291.093 22.0428 291.167 21.8748 291.011 21.4192C290.711 20.6944 289.176 19.0019 287.064 17.4359C284.952 15.8699 271.61 5.91747 268.572 3.66243C265.534 1.40781 263.76 0.706449 262.935 0.544993C262.765 0.511673 262.628 0.49707 262.515 0.49707Z"></path>
</g>
<defs>
<filter color-interpolation-filters="sRGB" filterUnits="userSpaceOnUse" height="21.5156" width="28.8086" y="0.557129" x="262.062" id="filter0_i_15575_12644">
<feFlood result="BackgroundImageFix" flood-opacity="0"></feFlood>
<feBlend result="shape" in2="BackgroundImageFix" in="SourceGraphic" mode="normal"></feBlend>
<feColorMatrix result="hardAlpha" values="0 0 0 0 0 0 0 0 0 0 0 0 0 0 0 0 0 0 127 0" type="matrix" in="SourceAlpha"></feColorMatrix>
<feOffset></feOffset>
<feGaussianBlur stdDeviation="0.590142"></feGaussianBlur>
<feComposite k3="1" k2="-1" operator="arithmetic" in2="hardAlpha"></feComposite>
<feColorMatrix values="0 0 0 0 0.958383 0 0 0 0 0.998042 0 0 0 0 1 0 0 0 1 0" type="matrix"></feColorMatrix>
<feBlend result="effect1_innerShadow_15575_12644" in2="shape" mode="normal"></feBlend>
</filter>
<linearGradient gradientUnits="userSpaceOnUse" y2="48.7079" x2="269.947" y1="28.6185" x1="242.491" id="paint0_linear_15575_12644">
<stop stop-color="#FDA1FF"></stop>
<stop stop-color="#97C5FF" offset="1"></stop>
</linearGradient>
<linearGradient gradientUnits="userSpaceOnUse" y2="29.7267" x2="260.367" y1="20.4246" x1="265.964" id="paint1_linear_15575_12644">
<stop stop-color="#B78EFA" offset="0.49"></stop>
<stop stop-color="#8F6CCD" offset="1"></stop>
</linearGradient>
<linearGradient gradientUnits="userSpaceOnUse" y2="59.0415" x2="264.69" y1="29.4882" x1="247.839" id="paint2_linear_15575_12644">
<stop stop-color="#FDA1FF" offset="0.2"></stop>
<stop stop-color="#F3A4FF" offset="0.3"></stop>
<stop stop-color="#D9ADFF" offset="0.48"></stop>
<stop stop-color="#AFBCFF" offset="0.71"></stop>
<stop stop-color="#97C5FF" offset="0.83"></stop>
</linearGradient>
<radialGradient gradientTransform="translate(265.463 28.3462) rotate(53.1) scale(3.52744 0.211646)" gradientUnits="userSpaceOnUse" r="1" cy="0" cx="0" id="paint3_radial_15575_12644">
<stop stop-color="white"></stop>
<stop stop-opacity="0" stop-color="white" offset="1"></stop>
</radialGradient>
<radialGradient gradientTransform="translate(265.322 28.4449) rotate(53.1) scale(3.52744 0.987682)" gradientUnits="userSpaceOnUse" r="1" cy="0" cx="0" id="paint4_radial_15575_12644">
<stop stop-color="white"></stop>
<stop stop-opacity="0" stop-color="white" offset="1"></stop>
</radialGradient>
<linearGradient gradientUnits="userSpaceOnUse" y2="64.0439" x2="258.806" y1="27.2681" x1="248.668" id="paint5_linear_15575_12644">
<stop stop-color="#EEBEFF"></stop>
<stop stop-color="#79EDFF" offset="1"></stop>
</linearGradient>
<linearGradient gradientUnits="userSpaceOnUse" y2="53.0169" x2="276.499" y1="27.0986" x1="282.371" id="paint6_linear_15575_12644">
<stop stop-color="#00B99A"></stop>
<stop stop-color="#009CBD" offset="1"></stop>
</linearGradient>
<linearGradient gradientUnits="userSpaceOnUse" y2="55.8725" x2="271.816" y1="24.6904" x1="281.926" id="paint7_linear_15575_12644">
<stop stop-color="#00CC9E" offset="0.01"></stop>
<stop stop-color="#00884A" offset="0.22"></stop>
<stop stop-color="#008D64" offset="0.31"></stop>
<stop stop-color="#009A9D" offset="0.55"></stop>
<stop stop-color="#00A3C7" offset="0.75"></stop>
<stop stop-color="#00A8E1" offset="0.91"></stop>
<stop stop-color="#00ABEB" offset="1"></stop>
</linearGradient>
<linearGradient gradientUnits="userSpaceOnUse" y2="45.0195" x2="283.335" y1="25.7851" x1="274.995" id="paint8_linear_15575_12644">
<stop stop-color="#3CE6AC"></stop>
<stop stop-color="#00E3FF" offset="1"></stop>
</linearGradient>
<radialGradient gradientTransform="translate(277.029 22.8635) scale(5.78712)" gradientUnits="userSpaceOnUse" r="1" cy="0" cx="0" id="paint9_radial_15575_12644">
<stop stop-color="white" offset="0.01"></stop>
<stop stop-opacity="0" stop-color="white" offset="1"></stop>
</radialGradient>
<radialGradient gradientTransform="translate(276.244 23.3565) scale(1.44834)" gradientUnits="userSpaceOnUse" r="1" cy="0" cx="0" id="paint10_radial_15575_12644">
<stop stop-color="white"></stop>
<stop stop-opacity="0" stop-color="white" offset="1"></stop>
</radialGradient>
<linearGradient gradientUnits="userSpaceOnUse" y2="40.1538" x2="292.834" y1="40.1538" x1="270.415" id="paint11_linear_15575_12644">
<stop stop-color="#00E4FF"></stop>
<stop stop-color="#00E3F7" offset="1"></stop>
</linearGradient>
<linearGradient gradientUnits="userSpaceOnUse" y2="23.3404" x2="248.988" y1="5.83655" x1="242.96" id="paint12_linear_15575_12644">
<stop stop-color="#00CDC2"></stop>
<stop stop-color="#288822" offset="1"></stop>
</linearGradient>
<linearGradient gradientUnits="userSpaceOnUse" y2="23.3445" x2="248.989" y1="5.90944" x1="242.985" id="paint13_linear_15575_12644">
<stop stop-color="#00CDC2"></stop>
<stop stop-color="#288822" offset="1"></stop>
</linearGradient>
<linearGradient gradientUnits="userSpaceOnUse" y2="22.8935" x2="248.771" y1="5.84584" x1="242.901" id="paint14_linear_15575_12644">
<stop stop-color="#00CDC3"></stop>
<stop stop-color="#4FDB5E" offset="1"></stop>
</linearGradient>
<radialGradient gradientTransform="translate(261.161 16.9837) scale(15.1036)" gradientUnits="userSpaceOnUse" r="1" cy="0" cx="0" id="paint15_radial_15575_12644">
<stop stop-color="white"></stop>
<stop stop-opacity="0" stop-color="white" offset="1"></stop>
</radialGradient>
<radialGradient gradientTransform="translate(262.612 15.747) rotate(96.4105) scale(6.25796 0.608956)" gradientUnits="userSpaceOnUse" r="1" cy="0" cx="0" id="paint16_radial_15575_12644">
<stop stop-color="white"></stop>
<stop stop-opacity="0" stop-color="white" offset="1"></stop>
</radialGradient>
<linearGradient gradientUnits="userSpaceOnUse" y2="24.8945" x2="249.642" y1="11.2716" x1="244.188" id="paint17_linear_15575_12644">
<stop stop-color="#00CDC3"></stop>
<stop stop-color="#4FDB5E" offset="1"></stop>
</linearGradient>
<radialGradient gradientTransform="translate(278.298 11.4793) scale(9.74717 9.74718)" gradientUnits="userSpaceOnUse" r="1" cy="0" cx="0" id="paint18_radial_15575_12644">
<stop stop-color="#88D2FF"></stop>
<stop stop-color="#0079FF" offset="1"></stop>
</radialGradient>
<radialGradient gradientTransform="translate(274.335 11.4793) scale(13.8122)" gradientUnits="userSpaceOnUse" r="1" cy="0" cx="0" id="paint19_radial_15575_12644">
<stop stop-color="#88D2FF"></stop>
<stop stop-color="#0079FF" offset="1"></stop>
</radialGradient>
<linearGradient gradientUnits="userSpaceOnUse" y2="8.84774" x2="282.143" y1="14.0869" x1="270.128" id="paint20_linear_15575_12644">
<stop stop-color="#62C7FF" offset="0.04"></stop>
<stop stop-color="#D9B5FF" offset="0.79"></stop>
</linearGradient>
<linearGradient gradientUnits="userSpaceOnUse" y2="15.5479" x2="284.113" y1="11.7084" x1="274.121" id="paint21_linear_15575_12644">
<stop stop-opacity="0" stop-color="#C07DFF"></stop>
<stop stop-color="#A855F5" offset="1"></stop>
</linearGradient>
<radialGradient gradientTransform="translate(265.691 8.17716) rotate(61.8392) scale(5.8057 0.726351)" gradientUnits="userSpaceOnUse" r="1" cy="0" cx="0" id="paint22_radial_15575_12644">
<stop stop-color="#0079FF"></stop>
<stop stop-color="#0079FF" offset="1"></stop>
</radialGradient>
<radialGradient gradientTransform="translate(264.396 6.42754) rotate(64.3033) scale(6.41016 0.38393)" gradientUnits="userSpaceOnUse" r="1" cy="0" cx="0" id="paint23_radial_15575_12644">
<stop stop-color="#0079FF"></stop>
<stop stop-opacity="0" stop-color="#0079FF" offset="1"></stop>
</radialGradient>
<linearGradient gradientUnits="userSpaceOnUse" y2="22.0992" x2="290.41" y1="18.3903" x1="276.581" id="paint24_linear_15575_12644">
<stop stop-color="#0079FF"></stop>
<stop stop-opacity="0.5" stop-color="#0079FF" offset="1"></stop>
</linearGradient>
<radialGradient gradientTransform="translate(282.696 19.9703) rotate(13.66) scale(7.94496 0.158899)" gradientUnits="userSpaceOnUse" r="1" cy="0" cx="0" id="paint25_radial_15575_12644">
<stop stop-color="#CDA2FD"></stop>
<stop stop-opacity="0" stop-color="#0079FF" offset="1"></stop>
</radialGradient>
<radialGradient gradientTransform="translate(275.122 18.006) rotate(20.2248) scale(2.7706 0.471001)" gradientUnits="userSpaceOnUse" r="1" cy="0" cx="0" id="paint26_radial_15575_12644">
<stop stop-color="white" offset="0.114841"></stop>
<stop stop-opacity="0" stop-color="white" offset="1"></stop>
</radialGradient>
<radialGradient gradientTransform="translate(269.034 12.3289) rotate(33.2544) scale(3.9458 1.12386)" gradientUnits="userSpaceOnUse" r="1" cy="0" cx="0" id="paint27_radial_15575_12644">
<stop stop-color="white"></stop>
<stop stop-opacity="0" stop-color="white" offset="1"></stop>
</radialGradient>
<radialGradient gradientTransform="translate(275.122 18.006) rotate(20.2248) scale(2.7706 0.471001)" gradientUnits="userSpaceOnUse" r="1" cy="0" cx="0" id="paint28_radial_15575_12644">
<stop stop-color="white" offset="0.114841"></stop>
<stop stop-opacity="0" stop-color="white" offset="1"></stop>
</radialGradient>
<radialGradient gradientTransform="translate(282.409 20.4735) rotate(13.8887) scale(8.35393 0.349442)" gradientUnits="userSpaceOnUse" r="1" cy="0" cx="0" id="paint29_radial_15575_12644">
<stop stop-color="#0079FF"></stop>
<stop stop-opacity="0" stop-color="#0079FF" offset="1"></stop>
</radialGradient>
<linearGradient gradientUnits="userSpaceOnUse" y2="11.4793" x2="290.995" y1="11.4793" x1="261.791" id="paint30_linear_15575_12644">
<stop stop-color="#88D2FF"></stop>
<stop stop-color="#F6B6FF" offset="1"></stop>
</linearGradient>
<linearGradient gradientUnits="userSpaceOnUse" y2="10.618" x2="276.347" y1="15.7858" x1="270.531" id="paint31_linear_15575_12644">
<stop stop-color="#0079FF"></stop>
<stop stop-opacity="0" stop-color="#0079FF" offset="1"></stop>
</linearGradient>
<linearGradient gradientUnits="userSpaceOnUse" y2="11.5526" x2="291.192" y1="11.5526" x1="261.783" id="paint32_linear_15575_12644">
<stop stop-color="#88D2FF"></stop>
<stop stop-color="#F6B6FF" offset="1"></stop>
</linearGradient>
<clipPath id="clip0_15575_12644">
<rect fill="white" height="109.569" width="293.39"></rect>
</clipPath>
</defs>
</svg>
