<svg xmlns="http://www.w3.org/2000/svg" fill="none" viewBox="0 0 515 95" height="95" width="515">
<path fill="black" d="M283.707 47.5517C283.707 38.5062 291.12 31.1909 300.388 31.1909C309.721 31.1909 317.136 38.5103 317.136 47.5517C317.136 56.5301 309.721 63.9795 300.388 63.9795C291.12 63.9795 283.707 56.5219 283.707 47.5517ZM309.126 47.5517C309.126 43.03 305.22 39.0389 300.388 39.0389C295.622 39.0389 291.717 43.03 291.717 47.5517C291.717 52.1405 295.622 56.1316 300.388 56.1316C305.229 56.1316 309.126 52.1405 309.126 47.5517Z"></path>
<path fill="black" d="M451.923 47.818C451.923 37.9084 459.932 31.1909 467.216 31.1909C472.18 31.1909 475.027 32.7198 476.945 35.6476L477.708 31.7846H485.153V63.3798H477.708L476.747 60.1267C474.563 62.5218 471.848 63.9897 467.216 63.9897C460.066 63.9795 451.923 57.6605 451.923 47.818ZM477.342 47.7509C477.333 45.4323 476.408 43.2121 474.77 41.5788C473.131 39.9456 470.915 39.033 468.607 39.0419C466.299 39.0508 464.089 39.9804 462.464 41.6263C460.838 43.2721 459.93 45.4994 459.939 47.818C459.939 52.2076 463.844 56.1316 468.612 56.1316C473.438 56.1316 477.342 52.2076 477.342 47.7509Z"></path>
<path fill="black" d="M442.773 35.4457V31.786H434.632V63.3792H442.773V46.3556C442.773 41.2341 445.29 38.5747 449.653 38.5747C449.943 38.5747 450.218 38.595 450.487 38.6215L451.997 30.9951C447.753 31.0175 444.677 32.4793 442.773 35.4457Z"></path>
<path fill="black" d="M360.963 35.4466V31.787L352.822 31.8053L352.891 63.3943L361.032 63.376L360.987 46.3545C360.975 41.235 363.486 38.5696 367.853 38.5594C368.132 38.5602 368.41 38.5758 368.687 38.6062L370.189 30.9717C365.939 31.0062 362.859 32.4742 360.963 35.4466Z"></path>
<path fill="black" d="M319.957 51.1426V31.7891H328.096V50.1464C328.096 54.2025 330.346 56.5976 334.252 56.5976C338.621 56.5976 341.132 53.9362 341.132 48.8147V31.7891H349.276V63.3802H341.139V59.7205C339.22 62.7133 336.108 64.1772 331.805 64.1772C324.524 64.1792 319.957 58.8584 319.957 51.1426Z"></path>
<path fill="black" d="M399.23 47.5883C399.249 38.7421 405.55 31.1727 415.545 31.191C424.813 31.2092 431.352 38.6689 431.33 47.4562C431.331 48.325 431.263 49.1925 431.127 50.0505L407.165 50.0057C408.084 53.7976 411.19 56.5301 415.891 56.5403C418.736 56.5403 421.784 55.4871 423.642 53.0961L429.195 57.569C426.339 61.6211 421.302 64.006 415.944 63.9958C406.483 63.9633 399.214 56.833 399.23 47.5883ZM423.134 44.3068C422.676 41.1148 419.372 38.6465 415.466 38.6404C411.692 38.6404 408.644 40.8891 407.446 44.2783L423.134 44.3068Z"></path>
<path fill="black" d="M370.236 56.4931L377.473 52.687C378.669 55.2915 381.061 56.8265 384.45 56.8265C387.573 56.8265 388.769 55.8262 388.769 54.4234C388.769 49.3405 371.627 52.4207 371.627 40.8012C371.627 34.3928 377.208 30.9893 384.117 30.9893C389.366 30.9893 394.016 33.3253 396.542 37.6641L389.37 41.4762C388.307 39.3394 386.314 38.1378 383.789 38.1378C381.332 38.1378 380.134 39.006 380.134 40.4739C380.134 45.4145 397.276 42.2773 397.276 54.096C397.276 60.2382 392.294 63.9751 384.254 63.9751C377.41 63.969 372.626 61.7 370.236 56.4931Z"></path>
<path fill="black" d="M251.379 47.5503C251.379 38.4398 258.792 31.1225 268.06 31.1225C270.847 31.1029 273.594 31.7802 276.056 33.0934C278.517 34.4067 280.614 36.3146 282.159 38.6451L275.209 42.6952C274.405 41.5408 273.335 40.599 272.09 39.9504C270.845 39.3018 269.462 38.9656 268.06 38.9704C263.294 38.9704 259.389 42.9615 259.389 47.5503C259.389 52.1392 263.294 56.1302 268.06 56.1302C269.528 56.1398 270.975 55.7711 272.261 55.0592C273.548 54.3474 274.631 53.3161 275.408 52.0639L282.288 56.1872C280.762 58.5859 278.657 60.5576 276.169 61.9185C273.68 63.2794 270.889 63.9852 268.056 63.9701C258.792 63.9782 251.379 56.5206 251.379 47.5503Z"></path>
<g clip-path="url(#clip0_15852_13652)">
<path fill="black" d="M96.4701 86.0154V56.7383H104.428V61.0267C106.179 57.9561 109.415 56.1031 113.447 56.1031C119.654 56.1031 123.421 60.3914 123.421 67.3268V86.0154H115.463V69.074C115.463 64.8385 113.818 62.8267 110.635 62.8267C106.921 62.8267 104.428 65.6857 104.428 70.0798V86.0156H96.4701V86.0154ZM81.7488 86.7567C72.0934 86.7567 65.6739 80.4036 65.6739 71.4564C65.6739 62.5092 71.8812 55.9973 80.5287 55.9973C88.2743 55.9973 93.7921 61.2914 94.4287 69.18L74.4278 76.38C75.9663 78.8683 78.8842 80.2976 82.8631 80.2976C85.9932 80.2976 89.0173 79.5035 91.2455 77.9681V84.3742C89.0704 85.8037 85.4628 86.7567 81.749 86.7567H81.7488ZM73.2073 70.7681L86.4705 65.9503C85.6217 63.5678 83.4466 62.1384 80.5285 62.1384C75.8599 62.1384 72.7298 65.7385 73.2073 70.7681ZM50.0447 86.8625C38.32 86.8625 29.8845 78.6563 29.8845 67.5386C29.8845 56.4208 38.6382 48.1087 50.5751 48.1087C55.2968 48.1087 59.7534 49.3262 62.1938 51.2322V58.644C59.6474 56.3144 55.7214 54.9379 51.6892 54.9379C43.4661 54.9379 38.1607 60.0205 38.1607 67.5382C38.1607 75.0559 43.2539 80.0855 50.522 80.0855C52.3789 80.0855 54.4478 79.7149 56.1456 79.0265V70.6088H48.1878V64.2558H63.361V82.5738C59.9125 85.2738 55.1908 86.8621 50.0447 86.8621V86.8625ZM66.747 52.3412L72.3173 40.3762L60.805 14.8579H69.4527L76.5617 31.217L83.6178 14.8579H91.6818L74.9703 52.3412H66.7472H66.747ZM49.5324 44.8763C39.877 44.8763 33.4575 38.5234 33.4575 29.5762C33.4575 20.629 39.6646 14.1171 48.3123 14.1171C56.0579 14.1171 61.5757 19.4114 62.2122 27.2996L42.2114 34.4998C43.7499 36.9881 46.6678 38.4174 50.6467 38.4174C53.7768 38.4174 56.8009 37.6232 59.0291 36.0879V42.494C56.854 43.9233 53.2464 44.8763 49.5326 44.8763H49.5324ZM40.9909 28.8877L54.2541 24.0701C53.4053 21.6876 51.2302 20.2582 48.3121 20.2582C43.6435 20.2582 40.5134 23.8581 40.9909 28.8877ZM0 44.135V7.07568H8.06402V20.9995H23.0249V7.07568H31.0891V44.1352H23.0249V28.0939H8.06402V44.1352H0V44.135Z"></path>
<path fill="url(#paint0_linear_15852_13652)" d="M117.086 49.6083C117.086 49.6083 100.874 37.1894 98.403 35.3185C97.0273 34.2768 95.5316 31.8368 95.8434 29.9175C96.0753 28.4907 96.8993 27.758 98.0158 27.3684C101.494 26.1546 112.53 22.3433 115.496 21.3902C117.131 20.8646 119.726 21.3455 121.664 22.9299C123.2 24.1848 124.413 26.0238 124.429 28.3953C124.464 33.7608 124.748 46.3177 124.748 47.9333C124.748 48.8547 124.361 50.4169 122.545 50.9643C120.778 51.4969 118.579 50.7507 117.086 49.6081V49.6083Z"></path>
<path fill="url(#paint1_linear_15852_13652)" d="M121.544 23.0363C123.079 24.2912 124.242 26.0374 124.258 28.4088C124.293 33.7743 124.748 46.3182 124.748 47.9338C124.748 46.3182 124.64 33.5474 124.605 28.1819C124.569 22.8164 118.71 20.0278 115.78 21.0868C112.85 22.1457 101.494 26.1553 98.0156 27.3688C101.494 26.1551 112.584 22.4847 115.55 21.5314C117.185 21.0058 119.605 21.4517 121.544 23.0363H121.544Z"></path>
<path fill="#AB81E9" d="M121.544 23.0363C123.079 24.2912 124.242 26.0374 124.258 28.4088C124.293 33.7743 124.748 46.3182 124.748 47.9338C124.748 46.3182 124.64 33.5474 124.605 28.1819C124.569 22.8164 118.71 20.0278 115.78 21.0868C112.85 22.1457 101.494 26.1553 98.0156 27.3688C101.494 26.1551 112.584 22.4847 115.55 21.5314C117.185 21.0058 119.605 21.4517 121.544 23.0363H121.544Z"></path>
<path fill="url(#paint2_linear_15852_13652)" d="M117.086 49.6083C117.086 49.6083 100.874 37.1894 98.403 35.3185C97.0273 34.2768 95.5316 31.8368 95.8434 29.9175C96.0753 28.4907 96.8993 27.758 98.0158 27.3684C101.494 26.1546 112.53 22.3433 115.496 21.3902C117.131 20.8646 119.726 21.3455 121.664 22.9299C123.2 24.1848 124.569 26.0425 124.595 28.4137C124.621 30.7492 124.629 34.4325 124.658 37.9841C124.695 42.6078 124.732 47.0094 124.73 47.9333C124.727 48.8547 124.361 50.4169 122.545 50.9643C120.778 51.4969 118.579 50.7507 117.086 49.6081V49.6083Z"></path>
<path fill="url(#paint3_radial_15852_13652)" d="M121.653 22.9206C123.19 24.174 124.406 26.0119 124.423 28.3832C124.464 33.7487 124.76 46.3053 124.762 47.9211C124.76 46.3055 124.639 33.5349 124.599 28.1694C124.559 22.8038 118.696 20.021 115.767 21.0827C112.839 22.1447 101.486 26.1651 98.0093 27.3821C101.486 26.1651 112.518 22.343 115.483 21.3868C117.118 20.8597 119.713 21.3379 121.653 22.9206Z"></path>
<path fill="url(#paint4_radial_15852_13652)" d="M121.653 22.9206C123.19 24.174 124.406 26.0119 124.423 28.3832C124.464 33.7487 124.76 46.3053 124.762 47.9211C124.76 46.3055 124.639 33.5349 124.599 28.1694C124.559 22.8038 118.696 20.021 115.767 21.0827C112.839 22.1447 101.486 26.1651 98.0093 27.3821C101.486 26.1651 112.518 22.343 115.483 21.3868C117.118 20.8597 119.713 21.3379 121.653 22.9206Z"></path>
<path fill="url(#paint5_linear_15852_13652)" d="M117.168 20.9941C117.925 20.9941 118.758 21.1623 119.578 21.4804C120.431 21.8117 121.25 22.3004 121.945 22.8932C122.711 23.5458 123.318 24.3059 123.748 25.1527C124.224 26.0899 124.469 27.1094 124.476 28.1829C124.49 30.413 124.518 33.9538 124.545 37.3781C124.583 42.3213 124.619 46.9902 124.619 47.9339C124.619 48.261 124.567 48.903 124.215 49.5262C123.854 50.166 123.28 50.6086 122.508 50.8412C122.134 50.954 121.726 51.0112 121.295 51.0112C120.61 51.0112 119.857 50.8639 119.117 50.5854C118.419 50.3228 117.744 49.9496 117.165 49.5063C117.003 49.3821 100.924 37.0657 98.4811 35.216C97.7894 34.6925 97.0882 33.8222 96.6052 32.8883C96.3441 32.3834 96.1554 31.8816 96.0443 31.3964C95.924 30.8706 95.8993 30.3802 95.9711 29.9387C96.0783 29.279 96.3146 28.7565 96.6934 28.3416C97.031 27.9719 97.4775 27.6936 98.0586 27.4909C101.637 26.2423 112.896 22.2665 115.824 21.2083C116.217 21.066 116.67 20.9939 117.169 20.9939M117.168 20.8649C116.664 20.8649 116.193 20.9378 115.78 21.0869C112.85 22.1458 101.494 26.1554 98.0158 27.3689C96.8993 27.7586 96.0751 28.491 95.8434 29.918C95.5316 31.8373 97.0273 34.2774 98.403 35.319C100.874 37.1899 117.086 49.6088 117.086 49.6088C118.242 50.4933 119.821 51.1403 121.295 51.1403C121.725 51.1403 122.146 51.0851 122.545 50.9649C124.361 50.4175 124.748 48.8552 124.748 47.9339C124.748 46.3183 124.64 33.5475 124.605 28.182C124.575 23.5723 120.245 20.8647 117.168 20.8647L117.168 20.8649Z"></path>
<path fill="url(#paint6_linear_15852_13652)" d="M127.483 27.7956C127.483 26.3266 128.044 23.9149 129.36 22.045C130.101 20.9931 131.035 20.0324 132.002 19.5924C132.754 19.2501 133.115 19.1935 134.007 19.3777C134.007 19.3777 144.819 21.6961 145.479 21.8301C146.138 21.964 146.857 22.4114 146.953 23.786C147.049 25.1607 146.687 27.333 145.148 29.5735C143.609 31.8139 134.24 45.3467 133.063 47.0439C131.887 48.741 130.12 49.8247 129.117 49.5604C127.844 49.2251 127.572 48.0519 127.581 47.2424C127.6 45.7488 127.483 27.7958 127.483 27.7958L127.483 27.7956Z"></path>
<path fill="url(#paint7_linear_15852_13652)" d="M129.117 49.311C127.937 48.9906 128.002 48.0875 127.99 47.2422C127.969 45.6804 127.892 27.7956 127.892 27.7956C127.892 26.3266 128.399 24.1999 129.716 22.33C130.456 21.2781 131.121 20.4827 132.032 19.9591C132.749 19.5472 133.444 19.4505 134.336 19.6348C134.336 19.6348 144.819 21.6961 145.478 21.8301C144.819 21.6961 134.007 19.3777 134.007 19.3777C133.115 19.1935 132.754 19.2501 132.002 19.5924C131.035 20.0324 130.101 20.9931 129.36 22.045C128.043 23.9149 127.483 26.3266 127.483 27.7956C127.483 27.7956 127.6 45.7488 127.581 47.2422C127.572 48.0517 127.844 49.2249 129.117 49.5603C130.12 49.8245 131.887 48.741 133.063 47.0437C131.887 48.741 130.118 49.5826 129.117 49.3108L129.117 49.311Z"></path>
<path fill="#00BA97" d="M129.117 49.311C127.937 48.9906 128.002 48.0875 127.99 47.2422C127.969 45.6804 127.892 27.7956 127.892 27.7956C127.892 26.3266 128.399 24.1999 129.716 22.33C130.456 21.2781 131.121 20.4827 132.032 19.9591C132.749 19.5472 133.444 19.4505 134.336 19.6348C134.336 19.6348 144.819 21.6961 145.478 21.8301C144.819 21.6961 134.007 19.3777 134.007 19.3777C133.115 19.1935 132.754 19.2501 132.002 19.5924C131.035 20.0324 130.101 20.9931 129.36 22.045C128.043 23.9149 127.483 26.3266 127.483 27.7956C127.483 27.7956 127.6 45.7488 127.581 47.2422C127.572 48.0517 127.844 49.2249 129.117 49.5603C130.12 49.8245 131.887 48.741 133.063 47.0437C131.887 48.741 130.118 49.5826 129.117 49.3108L129.117 49.311Z"></path>
<path fill="url(#paint8_linear_15852_13652)" d="M127.893 27.7962C127.893 26.3272 128.399 24.2005 129.716 22.3306C130.457 21.2787 131.122 20.4833 132.032 19.9597C132.749 19.5478 133.444 19.4511 134.337 19.6354C134.337 19.6354 144.82 21.6967 145.479 21.8307C146.138 21.9646 146.857 22.412 146.953 23.7866C147.049 25.1613 146.687 27.3336 145.148 29.5741C143.609 31.8145 134.24 45.3473 133.064 47.0445C131.887 48.7416 130.118 49.8329 129.117 49.561C127.937 49.2407 128.002 48.0881 127.991 47.243C127.97 45.6812 127.893 27.7964 127.893 27.7964V27.7962Z"></path>
<path fill="url(#paint9_radial_15852_13652)" d="M129.117 49.311C127.937 48.9906 128.002 48.0875 127.99 47.2422C127.969 45.6804 127.892 27.7956 127.892 27.7956C127.892 26.3266 128.399 24.1999 129.716 22.33C130.456 21.2781 131.121 20.4827 132.032 19.9591C132.749 19.5472 133.444 19.4505 134.336 19.6348C134.336 19.6348 144.819 21.6961 145.478 21.8301C144.819 21.6961 134.007 19.3777 134.007 19.3777C133.115 19.1935 132.754 19.2501 132.002 19.5924C131.035 20.0324 130.101 20.9931 129.36 22.045C128.043 23.9149 127.483 26.3266 127.483 27.7956C127.483 27.7956 127.6 45.7488 127.581 47.2422C127.572 48.0517 127.844 49.2249 129.117 49.5603C130.12 49.8245 131.887 48.741 133.063 47.0437C131.887 48.741 130.118 49.5826 129.117 49.3108L129.117 49.311Z"></path>
<path fill="url(#paint10_radial_15852_13652)" d="M129.117 49.311C127.937 48.9906 128.002 48.0875 127.99 47.2422C127.969 45.6804 127.892 27.7956 127.892 27.7956C127.892 26.3266 128.399 24.1999 129.716 22.33C130.456 21.2781 131.121 20.4827 132.032 19.9591C132.749 19.5472 133.444 19.4505 134.336 19.6348C134.336 19.6348 144.819 21.6961 145.478 21.8301C144.819 21.6961 134.007 19.3777 134.007 19.3777C133.115 19.1935 132.754 19.2501 132.002 19.5924C131.035 20.0324 130.101 20.9931 129.36 22.045C128.043 23.9149 127.483 26.3266 127.483 27.7956C127.483 27.7956 127.6 45.7488 127.581 47.2422C127.572 48.0517 127.844 49.2249 129.117 49.5603C130.12 49.8245 131.887 48.741 133.063 47.0437C131.887 48.741 130.118 49.5826 129.117 49.3108L129.117 49.311Z"></path>
<path fill="url(#paint11_linear_15852_13652)" d="M133.189 19.2746V19.419C133.398 19.419 133.641 19.4499 133.977 19.5192C134.088 19.5432 144.797 21.8394 145.449 21.9718C145.81 22.0451 146.103 22.2029 146.32 22.4404C146.603 22.7505 146.768 23.2068 146.809 23.7962C146.846 24.335 146.827 25.2145 146.524 26.3448C146.224 27.4611 145.721 28.5381 145.029 29.5459C143.499 31.7732 134.194 45.2136 132.945 47.0158C132.451 47.7284 131.816 48.3725 131.159 48.8299C130.529 49.2683 129.919 49.5098 129.442 49.5098C129.338 49.5098 129.241 49.4981 129.154 49.475C128.625 49.3358 128.236 49.0304 127.996 48.5669C127.765 48.1211 127.722 47.6309 127.726 47.2983C127.744 45.8222 127.629 28.0675 127.627 27.8495C127.627 27.0617 127.779 26.0793 128.044 25.1539C128.365 24.0296 128.845 22.9945 129.432 22.161C130.25 21.0004 131.208 20.1122 132.062 19.7238C132.496 19.526 132.805 19.4188 133.188 19.4188V19.2744M133.189 19.2746C132.795 19.2746 132.476 19.3769 132.002 19.5926C131.035 20.0327 130.055 21.0261 129.315 22.078C127.998 23.9479 127.483 26.381 127.483 27.8501C127.483 27.8501 127.6 45.8033 127.581 47.2966C127.572 48.1061 127.844 49.2793 129.117 49.6147C129.218 49.6414 129.327 49.6542 129.442 49.6542C130.47 49.6542 132.005 48.6241 133.063 47.0981C134.24 45.4008 143.609 31.8681 145.148 29.6277C146.687 27.3873 147.049 25.1607 146.953 23.7861C146.857 22.4117 146.138 21.9641 145.479 21.8302C144.819 21.6962 134.007 19.3778 134.007 19.3778C133.677 19.3096 133.42 19.2744 133.189 19.2744L133.189 19.2746Z"></path>
<path fill="url(#paint12_linear_15852_13652)" d="M94.8579 23.7591C94.8579 22.7743 95.5131 21.2955 96.3737 20.2658C96.3737 20.2658 109.326 4.71353 110.202 3.66012C111.077 2.60671 112.831 1.25036 114.17 0.686195C115.509 0.122028 116.389 0.255804 116.79 1.12616C117.192 1.99633 120.58 9.43015 120.983 10.3146C121.365 11.1517 121.297 11.887 120.506 13.4597C119.505 15.4533 116.841 17.7898 115.041 18.4465C113.064 19.1679 98.7143 24.385 97.2141 24.9289C95.7138 25.4725 94.8579 24.6076 94.8579 23.7591Z"></path>
<path fill="url(#paint13_linear_15852_13652)" d="M120.983 10.3144C120.58 9.42978 117.192 1.99613 116.79 1.12596C116.511 0.521354 116.001 0.272398 115.267 0.365734C115.917 0.296048 116.319 0.558183 116.592 1.14943C116.993 2.0196 120.26 9.09597 120.651 9.986C120.967 10.7045 120.972 11.4541 120.241 12.8922C119.278 14.7878 116.553 17.3483 114.753 18.0051C112.775 18.7265 98.3341 24.0346 96.8338 24.5783C95.3336 25.1221 94.954 24.4182 94.954 23.5695C94.954 22.9877 95.1491 22.2995 95.4863 21.6214C95.1014 22.3753 94.8579 23.1588 94.8579 23.7591C94.8579 24.6076 95.7138 25.4725 97.2141 24.9286C98.7143 24.3848 113.063 19.1677 115.041 18.4462C116.841 17.7894 119.505 15.4529 120.506 13.4593C121.297 11.8867 121.365 11.1515 120.983 10.3142L120.983 10.3144Z"></path>
<path fill="#128414" d="M120.983 10.3144C120.58 9.42978 117.192 1.99613 116.79 1.12596C116.511 0.521354 116.001 0.272398 115.267 0.365734C115.917 0.296048 116.319 0.558183 116.592 1.14943C116.993 2.0196 120.26 9.09597 120.651 9.986C120.967 10.7045 120.972 11.4541 120.241 12.8922C119.278 14.7878 116.553 17.3483 114.753 18.0051C112.775 18.7265 98.3341 24.0346 96.8338 24.5783C95.3336 25.1221 94.954 24.4182 94.954 23.5695C94.954 22.9877 95.1491 22.2995 95.4863 21.6214C95.1014 22.3753 94.8579 23.1588 94.8579 23.7591C94.8579 24.6076 95.7138 25.4725 97.2141 24.9286C98.7143 24.3848 113.063 19.1677 115.041 18.4462C116.841 17.7894 119.505 15.4529 120.506 13.4593C121.297 11.8867 121.365 11.1515 120.983 10.3142L120.983 10.3144Z"></path>
<path fill="url(#paint14_linear_15852_13652)" d="M94.9536 23.5694C94.9536 22.5846 95.5125 21.2954 96.3733 20.2655C96.3733 20.2655 109.326 4.71324 110.201 3.65983C111.077 2.60641 112.831 1.25007 114.17 0.685899C115.509 0.121732 116.19 0.278976 116.591 1.14915C116.993 2.01932 120.26 9.09569 120.651 9.98572C120.967 10.7042 120.972 11.4538 120.241 12.8919C119.277 14.7875 116.553 17.348 114.753 18.0048C112.775 18.7262 98.3339 24.0343 96.8337 24.5781C95.3335 25.1218 94.9538 24.4179 94.9538 23.5692L94.9536 23.5694Z"></path>
<path fill="url(#paint15_radial_15852_13652)" d="M120.983 10.3144C120.58 9.42978 117.192 1.99613 116.79 1.12596C116.511 0.521354 116.001 0.272398 115.267 0.365734C115.917 0.296048 116.319 0.558183 116.592 1.14943C116.993 2.0196 120.26 9.09597 120.651 9.986C120.967 10.7045 120.972 11.4541 120.241 12.8922C119.278 14.7878 116.553 17.3483 114.753 18.0051C112.775 18.7265 98.3341 24.0346 96.8338 24.5783C95.3336 25.1221 94.954 24.4182 94.954 23.5695C94.954 22.9877 95.1491 22.2995 95.4863 21.6214C95.1014 22.3753 94.8579 23.1588 94.8579 23.7591C94.8579 24.6076 95.7138 25.4725 97.2141 24.9286C98.7143 24.3848 113.063 19.1677 115.041 18.4462C116.841 17.7894 119.505 15.4529 120.506 13.4593C121.297 11.8867 121.365 11.1515 120.983 10.3142L120.983 10.3144Z"></path>
<path fill="#128414" d="M120.983 10.3144C120.58 9.42978 117.192 1.99613 116.79 1.12596C116.511 0.521354 116.001 0.272398 115.267 0.365734C115.917 0.296048 116.319 0.558183 116.592 1.14943C116.993 2.0196 120.26 9.09597 120.651 9.986C120.967 10.7045 120.972 11.4541 120.241 12.8922C119.278 14.7878 116.553 17.3483 114.753 18.0051C112.775 18.7265 98.3341 24.0346 96.8338 24.5783C95.3336 25.1221 94.954 24.4182 94.954 23.5695C94.954 22.9877 95.1491 22.2995 95.4863 21.6214C95.1014 22.3753 94.8579 23.1588 94.8579 23.7591C94.8579 24.6076 95.7138 25.4725 97.2141 24.9286C98.7143 24.3848 113.063 19.1677 115.041 18.4462C116.841 17.7894 119.505 15.4529 120.506 13.4593C121.297 11.8867 121.365 11.1515 120.983 10.3142L120.983 10.3144Z"></path>
<path fill="url(#paint16_radial_15852_13652)" d="M120.983 10.3144C120.58 9.42978 117.192 1.99613 116.79 1.12596C116.511 0.521354 116.001 0.272398 115.267 0.365734C115.917 0.296048 116.319 0.558183 116.592 1.14943C116.993 2.0196 120.26 9.09597 120.651 9.986C120.967 10.7045 120.972 11.4541 120.241 12.8922C119.278 14.7878 116.553 17.3483 114.753 18.0051C112.775 18.7265 98.3341 24.0346 96.8338 24.5783C95.3336 25.1221 94.954 24.4182 94.954 23.5695C94.954 22.9877 95.1491 22.2995 95.4863 21.6214C95.1014 22.3753 94.8579 23.1588 94.8579 23.7591C94.8579 24.6076 95.7138 25.4725 97.2141 24.9286C98.7143 24.3848 113.063 19.1677 115.041 18.4462C116.841 17.7894 119.505 15.4529 120.506 13.4593C121.297 11.8867 121.365 11.1515 120.983 10.3142L120.983 10.3144Z"></path>
<path fill="url(#paint17_linear_15852_13652)" d="M115.554 0.527213C116.066 0.527213 116.373 0.780842 116.582 1.2347C116.907 1.93788 119.213 6.86809 120.301 9.25312C120.555 9.8106 120.742 10.2201 120.819 10.3894C121.009 10.8061 121.065 11.1641 121.006 11.5861C120.941 12.0451 120.737 12.5979 120.345 13.3785C120.109 13.8486 119.772 14.3514 119.343 14.8728C118.936 15.3681 118.468 15.855 117.952 16.3201C116.918 17.2513 115.835 17.9646 114.979 18.2767C113.079 18.97 98.7155 24.1923 97.1525 24.759C96.8618 24.8644 96.5856 24.9178 96.3312 24.9178C95.9388 24.9178 95.6053 24.7909 95.367 24.5508C95.1581 24.3403 95.0383 24.0518 95.0383 23.7592C95.0383 23.3107 95.1874 22.722 95.4584 22.1015C95.7292 21.4814 96.1032 20.8706 96.5123 20.3812C96.6418 20.2258 109.475 4.81669 110.34 3.77537C110.759 3.27114 111.408 2.67267 112.121 2.1336C112.867 1.56889 113.62 1.11377 114.24 0.852534C114.752 0.636616 115.194 0.527213 115.554 0.527213M115.554 0.34668C115.167 0.34668 114.705 0.460596 114.17 0.686263C112.831 1.25043 111.077 2.60678 110.202 3.66019C109.326 4.7136 96.3735 20.2658 96.3735 20.2658C95.5131 21.2956 94.8579 22.7742 94.8579 23.7592C94.8579 24.4237 95.3829 25.0984 96.3314 25.0984C96.5939 25.0984 96.8889 25.0467 97.2141 24.9288C98.7143 24.3851 113.063 19.168 115.041 18.4466C116.841 17.7898 119.505 15.4534 120.506 13.4597C121.297 11.8871 121.365 11.152 120.983 10.3147C120.58 9.43004 117.192 1.99639 116.79 1.12622C116.549 0.603759 116.136 0.34686 115.554 0.34686V0.34668Z"></path>
<path fill="url(#paint18_radial_15852_13652)" d="M120.22 1.24762C119.964 0.699128 119.927 0.554995 120.071 0.35051C120.215 0.146025 120.271 -0.0957354 120.982 0.0437828C121.693 0.183301 123.225 0.788412 125.847 2.73457C128.468 4.68072 140.018 13.2687 141.84 14.6202C143.663 15.9718 144.988 17.4324 145.247 18.058C145.457 18.5477 145.359 18.6517 145.215 18.8242C145.093 18.9693 145.014 19.1201 144.594 19.0774C144.594 19.0774 143.093 18.7504 141.318 18.3379C139.543 17.9254 135.052 16.8948 132.88 16.3889C130.707 15.883 128.269 14.0622 127.408 13.3766C126.837 12.9213 125.957 12.2108 125.053 11.1247C124.688 10.6867 124.441 10.2529 124.117 9.54575C123.133 7.39582 120.22 1.24779 120.22 1.24779L120.22 1.24762Z"></path>
<path fill="url(#paint19_radial_15852_13652)" d="M145.095 17.83C145.17 18.042 145.213 18.4291 145.104 18.5328C145.005 18.6279 144.823 18.5915 144.493 18.5145C144.493 18.5145 143.229 18.1606 141.454 17.748C139.679 17.3355 135.186 16.2464 133.013 15.7405C130.841 15.2346 128.69 13.5059 127.83 12.8203C127.258 12.3651 126.571 11.8167 125.667 10.7306C125.303 10.2927 124.756 9.26991 124.419 8.56895C123.389 6.42541 120.631 0.951894 120.631 0.951894C120.375 0.403406 120.421 0.245072 120.544 0.13999C120.605 0.0879814 120.741 0.0748461 121.075 0.131825C121.767 0.249865 123.136 0.755574 125.604 2.55635C123.13 0.750959 121.671 0.178863 120.982 0.0437828C120.271 -0.0957354 120.215 0.146025 120.071 0.35051C119.927 0.554995 119.964 0.699128 120.22 1.24762C120.22 1.24762 123.133 7.39565 124.117 9.54558C124.441 10.2528 124.688 10.6866 125.053 11.1245C125.957 12.2106 126.837 12.9212 127.408 13.3765C128.269 14.062 130.708 15.8828 132.88 16.3887C135.053 16.8946 139.543 17.9252 141.318 18.3377C143.093 18.7502 144.594 19.0772 144.594 19.0772C145.014 19.12 145.093 18.9691 145.215 18.8241C145.36 18.6514 145.305 18.3196 145.095 17.8299L145.095 17.83Z"></path>
<path fill="#0079FF" d="M145.095 17.83C145.17 18.042 145.213 18.4291 145.104 18.5328C145.005 18.6279 144.823 18.5915 144.493 18.5145C144.493 18.5145 143.229 18.1606 141.454 17.748C139.679 17.3355 135.186 16.2464 133.013 15.7405C130.841 15.2346 128.69 13.5059 127.83 12.8203C127.258 12.3651 126.571 11.8167 125.667 10.7306C125.303 10.2927 124.756 9.26991 124.419 8.56895C123.389 6.42541 120.631 0.951894 120.631 0.951894C120.375 0.403406 120.421 0.245072 120.544 0.13999C120.605 0.0879814 120.741 0.0748461 121.075 0.131825C121.767 0.249865 123.136 0.755574 125.604 2.55635C123.13 0.750959 121.671 0.178863 120.982 0.0437828C120.271 -0.0957354 120.215 0.146025 120.071 0.35051C119.927 0.554995 119.964 0.699128 120.22 1.24762C120.22 1.24762 123.133 7.39565 124.117 9.54558C124.441 10.2528 124.688 10.6866 125.053 11.1245C125.957 12.2106 126.837 12.9212 127.408 13.3765C128.269 14.062 130.708 15.8828 132.88 16.3887C135.053 16.8946 139.543 17.9252 141.318 18.3377C143.093 18.7502 144.594 19.0772 144.594 19.0772C145.014 19.12 145.093 18.9691 145.215 18.8241C145.36 18.6514 145.305 18.3196 145.095 17.8299L145.095 17.83Z"></path>
<g filter="url(#filter0_i_15852_13652)">
<path fill="url(#paint20_linear_15852_13652)" d="M120.428 1.00733C120.173 0.458846 120.185 0.216198 120.308 0.111116C120.369 0.0591073 120.751 0.0179263 121.081 0.092123C121.799 0.253474 123.225 0.788827 125.847 2.73498C128.469 4.68114 139.944 13.3041 141.766 14.6556C143.588 16.0071 144.864 17.3947 145.123 18.0203C145.198 18.2322 145.327 18.5655 145.219 18.6692C145.12 18.7643 144.998 18.7783 144.667 18.7013C144.667 18.7013 143.154 18.3053 141.379 17.8928C139.605 17.4802 135.179 16.4198 133.007 15.9139C130.834 15.4081 128.649 13.6628 127.788 12.9773C127.217 12.522 126.439 11.9318 125.535 10.8457C125.17 10.4078 124.734 9.97715 124.41 9.26997C123.426 7.12004 120.428 1.00751 120.428 1.00751L120.428 1.00733Z"></path>
<path fill-opacity="0.2" fill="url(#paint21_linear_15852_13652)" d="M120.428 1.00733C120.173 0.458846 120.185 0.216198 120.308 0.111116C120.369 0.0591073 120.751 0.0179263 121.081 0.092123C121.799 0.253474 123.225 0.788827 125.847 2.73498C128.469 4.68114 139.944 13.3041 141.766 14.6556C143.588 16.0071 144.864 17.3947 145.123 18.0203C145.198 18.2322 145.327 18.5655 145.219 18.6692C145.12 18.7643 144.998 18.7783 144.667 18.7013C144.667 18.7013 143.154 18.3053 141.379 17.8928C139.605 17.4802 135.179 16.4198 133.007 15.9139C130.834 15.4081 128.649 13.6628 127.788 12.9773C127.217 12.522 126.439 11.9318 125.535 10.8457C125.17 10.4078 124.734 9.97715 124.41 9.26997C123.426 7.12004 120.428 1.00751 120.428 1.00751L120.428 1.00733Z"></path>
</g>
<path fill="url(#paint22_radial_15852_13652)" d="M144.988 17.8304C145.063 18.0423 145.106 18.4295 144.997 18.5331C144.898 18.6283 144.716 18.5919 144.386 18.5149C144.386 18.5149 143.122 18.1609 141.347 17.7484C139.572 17.3359 135.079 16.2467 132.906 15.7408C130.734 15.2349 128.583 13.5062 127.723 12.8207C127.151 12.3654 126.5 11.7106 125.596 10.6245C125.231 10.1866 124.702 9.27028 124.365 8.56931C123.335 6.42577 120.595 0.952258 120.595 0.952258C120.339 0.403771 120.314 0.245437 120.437 0.140354C120.498 0.0883458 120.634 0.0752105 120.968 0.132189C121.66 0.250229 123.029 0.755939 125.497 2.55672C123.023 0.751324 121.566 0.168578 120.875 0.0441473C120.252 -0.0682128 120.208 0.185796 120.056 0.397913C119.94 0.561039 119.964 0.69967 120.22 1.24816C120.22 1.24816 123.067 7.25135 124.051 9.40127C124.375 10.1085 124.688 10.6869 125.053 11.1248C125.957 12.211 126.761 12.8493 127.333 13.3046C128.193 13.9901 130.601 15.8477 132.773 16.3536C134.946 16.8595 139.436 17.89 141.211 18.3026C142.986 18.7151 144.487 19.0598 144.487 19.0598C144.907 19.1026 144.986 18.9695 145.108 18.8244C145.253 18.6517 145.198 18.32 144.988 17.8302L144.988 17.8304Z"></path>
<path fill="#00E1FF" d="M144.988 17.8304C145.063 18.0423 145.106 18.4295 144.997 18.5331C144.898 18.6283 144.716 18.5919 144.386 18.5149C144.386 18.5149 143.122 18.1609 141.347 17.7484C139.572 17.3359 135.079 16.2467 132.906 15.7408C130.734 15.2349 128.583 13.5062 127.723 12.8207C127.151 12.3654 126.5 11.7106 125.596 10.6245C125.231 10.1866 124.702 9.27028 124.365 8.56931C123.335 6.42577 120.595 0.952258 120.595 0.952258C120.339 0.403771 120.314 0.245437 120.437 0.140354C120.498 0.0883458 120.634 0.0752105 120.968 0.132189C121.66 0.250229 123.029 0.755939 125.497 2.55672C123.023 0.751324 121.566 0.168578 120.875 0.0441473C120.252 -0.0682128 120.208 0.185796 120.056 0.397913C119.94 0.561039 119.964 0.69967 120.22 1.24816C120.22 1.24816 123.067 7.25135 124.051 9.40127C124.375 10.1085 124.688 10.6869 125.053 11.1248C125.957 12.211 126.761 12.8493 127.333 13.3046C128.193 13.9901 130.601 15.8477 132.773 16.3536C134.946 16.8595 139.436 17.89 141.211 18.3026C142.986 18.7151 144.487 19.0598 144.487 19.0598C144.907 19.1026 145.063 18.9108 145.184 18.7658C145.329 18.5931 145.25 18.3051 144.988 17.8302L144.988 17.8304Z"></path>
<path fill="#00E1FF" d="M144.988 17.8304C145.063 18.0423 145.106 18.4295 144.997 18.5331C144.898 18.6283 144.716 18.5919 144.386 18.5149C144.386 18.5149 143.122 18.1609 141.347 17.7484C139.572 17.3359 135.079 16.2467 132.906 15.7408C130.734 15.2349 128.583 13.5062 127.723 12.8207C127.151 12.3654 126.5 11.7106 125.596 10.6245C125.231 10.1866 124.702 9.27028 124.365 8.56931C123.335 6.42577 120.595 0.952258 120.595 0.952258C120.339 0.403771 120.314 0.245437 120.437 0.140354C120.498 0.0883458 120.634 0.0752105 120.968 0.132189C121.66 0.250229 123.029 0.755939 125.497 2.55672C123.023 0.751324 121.566 0.168578 120.875 0.0441473C120.252 -0.0682128 120.208 0.185796 120.056 0.397913C119.94 0.561039 119.964 0.69967 120.22 1.24816C120.22 1.24816 123.067 7.25135 124.051 9.40127C124.375 10.1085 124.688 10.6869 125.053 11.1248C125.957 12.211 126.761 12.8493 127.333 13.3046C128.193 13.9901 130.601 15.8477 132.773 16.3536C134.946 16.8595 139.436 17.89 141.211 18.3026C142.986 18.7151 144.487 19.0598 144.487 19.0598C144.907 19.1026 144.986 18.9695 145.108 18.8244C145.253 18.6517 145.198 18.32 144.988 17.8302L144.988 17.8304Z"></path>
<path fill="url(#paint23_radial_15852_13652)" d="M144.988 17.8304C145.063 18.0423 145.106 18.4295 144.997 18.5331C144.898 18.6283 144.716 18.5919 144.386 18.5149C144.386 18.5149 143.122 18.1609 141.347 17.7484C139.572 17.3359 135.079 16.2467 132.906 15.7408C130.734 15.2349 128.583 13.5062 127.723 12.8207C127.151 12.3654 126.5 11.7106 125.596 10.6245C125.231 10.1866 124.702 9.27028 124.365 8.56931C123.335 6.42577 120.595 0.952258 120.595 0.952258C120.339 0.403771 120.314 0.245437 120.437 0.140354C120.498 0.0883458 120.634 0.0752105 120.968 0.132189C121.66 0.250229 123.029 0.755939 125.497 2.55672C123.023 0.751324 121.566 0.168578 120.875 0.0441473C120.252 -0.0682128 120.208 0.185796 120.056 0.397913C119.94 0.561039 119.964 0.69967 120.22 1.24816C120.22 1.24816 123.067 7.25135 124.051 9.40127C124.375 10.1085 124.688 10.6869 125.053 11.1248C125.957 12.211 126.761 12.8493 127.333 13.3046C128.193 13.9901 130.601 15.8477 132.773 16.3536C134.946 16.8595 139.436 17.89 141.211 18.3026C142.986 18.7151 144.487 19.0598 144.487 19.0598C144.907 19.1026 144.986 18.9695 145.108 18.8244C145.253 18.6517 145.198 18.32 144.988 17.8302L144.988 17.8304Z"></path>
<path fill-opacity="0.7" fill="url(#paint24_linear_15852_13652)" d="M144.988 17.8304C145.063 18.0423 145.106 18.4295 144.997 18.5331C144.898 18.6283 144.716 18.5919 144.386 18.5149C144.386 18.5149 143.122 18.1609 141.347 17.7484C139.572 17.3359 135.079 16.2467 132.906 15.7408C130.734 15.2349 128.583 13.5062 127.723 12.8207C127.151 12.3654 126.5 11.7106 125.596 10.6245C125.231 10.1866 124.702 9.27028 124.365 8.56931C123.335 6.42577 120.595 0.952258 120.595 0.952258C120.339 0.403771 120.314 0.245437 120.437 0.140354C120.498 0.0883458 120.634 0.0752105 120.968 0.132189C121.66 0.250229 123.029 0.755939 125.497 2.55672C123.023 0.751324 121.566 0.168578 120.875 0.0441473C120.252 -0.0682128 120.208 0.185796 120.056 0.397913C119.94 0.561039 119.964 0.69967 120.22 1.24816C120.22 1.24816 123.067 7.25135 124.051 9.40127C124.375 10.1085 124.688 10.6869 125.053 11.1248C125.957 12.211 126.761 12.8493 127.333 13.3046C128.193 13.9901 130.601 15.8477 132.773 16.3536C134.946 16.8595 139.436 17.89 141.211 18.3026C142.986 18.7151 144.487 19.0598 144.487 19.0598C144.907 19.1026 144.986 18.9695 145.108 18.8244C145.393 18.5274 145.198 18.32 144.988 17.8302L144.988 17.8304Z"></path>
<path fill="url(#paint25_radial_15852_13652)" d="M144.988 17.8304C145.063 18.0423 145.106 18.4295 144.997 18.5331C144.898 18.6283 144.716 18.5919 144.386 18.5149C144.386 18.5149 143.122 18.1609 141.347 17.7484C139.572 17.3359 135.079 16.2467 132.906 15.7408C130.734 15.2349 128.583 13.5062 127.723 12.8207C127.151 12.3654 126.5 11.7106 125.596 10.6245C125.231 10.1866 124.702 9.27028 124.365 8.56931C123.335 6.42577 120.595 0.952258 120.595 0.952258C120.339 0.403771 120.314 0.245437 120.437 0.140354C120.498 0.0883458 120.634 0.0752105 120.968 0.132189C121.66 0.250229 123.029 0.755939 125.497 2.55672C123.023 0.751324 121.566 0.168578 120.875 0.0441473C120.252 -0.0682128 120.208 0.185796 120.056 0.397913C119.94 0.561039 119.964 0.69967 120.22 1.24816C120.22 1.24816 123.067 7.25135 124.051 9.40127C124.375 10.1085 124.688 10.6869 125.053 11.1248C125.957 12.211 126.761 12.8493 127.333 13.3046C128.193 13.9901 130.601 15.8477 132.773 16.3536C134.946 16.8595 139.436 17.89 141.211 18.3026C142.986 18.7151 144.487 19.0598 144.487 19.0598C144.907 19.1026 144.986 18.9695 145.108 18.8244C145.253 18.6517 145.198 18.32 144.988 17.8302L144.988 17.8304Z"></path>
<path fill="url(#paint26_radial_15852_13652)" d="M144.988 17.8304C145.063 18.0423 145.106 18.4295 144.997 18.5331C144.898 18.6283 144.716 18.5919 144.386 18.5149C144.386 18.5149 143.122 18.1609 141.347 17.7484C139.572 17.3359 135.079 16.2467 132.906 15.7408C130.734 15.2349 128.583 13.5062 127.723 12.8207C127.151 12.3654 126.5 11.7106 125.596 10.6245C125.231 10.1866 124.702 9.27028 124.365 8.56931C123.335 6.42577 120.595 0.952258 120.595 0.952258C120.339 0.403771 120.314 0.245437 120.437 0.140354C120.498 0.0883458 120.634 0.0752105 120.968 0.132189C121.66 0.250229 123.029 0.755939 125.497 2.55672C123.023 0.751324 121.566 0.168578 120.875 0.0441473C120.252 -0.0682128 120.208 0.185796 120.056 0.397913C119.94 0.561039 119.964 0.69967 120.22 1.24816C120.22 1.24816 123.067 7.25135 124.051 9.40127C124.375 10.1085 124.688 10.6869 125.053 11.1248C125.957 12.211 126.761 12.8493 127.333 13.3046C128.193 13.9901 130.601 15.8477 132.773 16.3536C134.946 16.8595 139.436 17.89 141.211 18.3026C142.986 18.7151 144.487 19.0598 144.487 19.0598C144.907 19.1026 144.986 18.9695 145.108 18.8244C145.253 18.6517 145.198 18.32 144.988 17.8302L144.988 17.8304Z"></path>
<path fill="url(#paint27_radial_15852_13652)" d="M144.988 17.8304C145.063 18.0423 145.106 18.4295 144.997 18.5331C144.898 18.6283 144.716 18.5919 144.386 18.5149C144.386 18.5149 143.122 18.1609 141.347 17.7484C139.572 17.3359 135.079 16.2467 132.906 15.7408C130.734 15.2349 128.583 13.5062 127.723 12.8207C127.151 12.3654 126.5 11.7106 125.596 10.6245C125.231 10.1866 124.702 9.27028 124.365 8.56931C123.335 6.42577 120.595 0.952258 120.595 0.952258C120.339 0.403771 120.314 0.245437 120.437 0.140354C120.498 0.0883458 120.634 0.0752105 120.968 0.132189C121.66 0.250229 123.029 0.755939 125.497 2.55672C123.023 0.751324 121.566 0.168578 120.875 0.0441473C120.252 -0.0682128 120.208 0.185796 120.056 0.397913C119.94 0.561039 119.964 0.69967 120.22 1.24816C120.22 1.24816 123.067 7.25135 124.051 9.40127C124.375 10.1085 124.688 10.6869 125.053 11.1248C125.957 12.211 126.761 12.8493 127.333 13.3046C128.193 13.9901 130.601 15.8477 132.773 16.3536C134.946 16.8595 139.436 17.89 141.211 18.3026C142.986 18.7151 144.487 19.0598 144.487 19.0598C144.907 19.1026 144.986 18.9695 145.108 18.8244C145.253 18.6517 145.198 18.32 144.988 17.8302L144.988 17.8304Z"></path>
<path fill="url(#paint28_radial_15852_13652)" d="M144.988 17.8304C145.063 18.0423 145.106 18.4295 144.997 18.5331C144.898 18.6283 144.716 18.5919 144.386 18.5149C144.386 18.5149 143.122 18.1609 141.347 17.7484C139.572 17.3359 135.079 16.2467 132.906 15.7408C130.734 15.2349 128.583 13.5062 127.723 12.8207C127.151 12.3654 126.5 11.7106 125.596 10.6245C125.231 10.1866 124.702 9.27028 124.365 8.56931C123.335 6.42577 120.595 0.952258 120.595 0.952258C120.339 0.403771 120.314 0.245437 120.437 0.140354C120.498 0.0883458 120.634 0.0752105 120.968 0.132189C121.66 0.250229 123.029 0.755939 125.497 2.55672C123.023 0.751324 121.566 0.168578 120.875 0.0441473C120.252 -0.0682128 120.208 0.185796 120.056 0.397913C119.94 0.561039 119.964 0.69967 120.22 1.24816C120.22 1.24816 123.067 7.25135 124.051 9.40127C124.375 10.1085 124.688 10.6869 125.053 11.1248C125.957 12.211 126.761 12.8493 127.333 13.3046C128.193 13.9901 130.601 15.8477 132.773 16.3536C134.946 16.8595 139.436 17.89 141.211 18.3026C142.986 18.7151 144.487 19.0598 144.487 19.0598C144.907 19.1026 144.986 18.9695 145.108 18.8244C145.253 18.6517 145.198 18.32 144.988 17.8302L144.988 17.8304Z"></path>
<path fill="url(#paint29_radial_15852_13652)" d="M145.047 17.8592C145.122 18.0712 145.165 18.4583 145.056 18.562C144.957 18.6571 144.775 18.6207 144.445 18.5437C144.445 18.5437 143.181 18.1897 141.406 17.7772C139.631 17.3647 135.138 16.2755 132.965 15.7696C130.793 15.2638 128.642 13.535 127.782 12.8495C127.21 12.3942 126.559 11.7394 125.655 10.6533C125.29 10.2154 124.761 9.29908 124.424 8.59812C123.394 6.45458 120.654 0.981067 120.654 0.981067C120.398 0.432579 120.373 0.274245 120.496 0.169163C120.557 0.117154 120.693 0.104019 121.027 0.160998C121.719 0.279038 123.088 0.784747 125.556 2.58553C123.082 0.780132 121.625 0.197386 120.934 0.0729558C120.311 -0.0394042 120.267 0.214604 120.115 0.426721C119.999 0.589848 120.023 0.728478 120.279 1.27697C120.279 1.27697 123.126 7.28015 124.11 9.43008C124.434 10.1373 124.747 10.7157 125.112 11.1536C126.016 12.2398 126.82 12.8781 127.392 13.3334C128.252 14.0189 130.66 15.8765 132.832 16.3824C135.005 16.8883 139.496 17.9189 141.27 18.3314C143.045 18.7439 144.546 19.0886 144.546 19.0886C144.967 19.1314 145.045 18.9983 145.167 18.8532C145.312 18.6805 145.257 18.3488 145.047 17.859V17.8592Z"></path>
<path fill="url(#paint30_linear_15852_13652)" d="M120.619 0.144445C120.711 0.144445 120.824 0.157402 120.955 0.183141C121.255 0.241894 121.79 0.403246 122.633 0.837953C123.545 1.30798 124.598 1.98445 125.762 2.84854C127.025 3.78594 130.408 6.30064 133.68 8.7328C137.186 11.3389 140.811 14.0336 141.756 14.7342C142.815 15.5198 143.576 16.2423 144.028 16.71C144.584 17.2855 144.99 17.8098 145.116 18.1123L145.116 18.113L145.116 18.1137C145.201 18.3099 145.236 18.448 145.224 18.5358C145.215 18.6004 145.191 18.6497 145.122 18.7317L145.116 18.7399C145.104 18.7532 145.094 18.7663 145.083 18.7796C144.997 18.8856 144.906 18.8775 144.699 18.8775C144.664 18.8775 144.627 18.8756 144.586 18.8717C144.303 18.8171 143.038 18.5916 141.35 18.1994C140.552 18.014 139.339 17.6487 137.907 17.3187C136.108 16.9043 134.108 16.529 132.912 16.2505C131.991 16.0359 130.919 15.5577 129.726 14.8288C128.73 14.22 127.902 13.5881 127.497 13.2655C126.812 12.7199 126.07 12.0537 125.222 11.0352C124.877 10.6161 124.618 10.1926 124.282 9.45895C123.311 7.33671 120.388 1.27089 120.348 1.18728C120.084 0.620511 120.098 0.558739 120.187 0.432356C120.205 0.407328 120.221 0.382478 120.236 0.358692C120.322 0.225031 120.374 0.144445 120.619 0.144445ZM120.619 0.00244141C120.244 0.00244141 120.185 0.188288 120.071 0.350527C119.927 0.555012 119.964 0.699145 120.22 1.24763C120.22 1.24763 123.133 7.39566 124.117 9.54559C124.441 10.2528 124.647 10.7378 125.012 11.1757C125.916 12.2619 126.805 12.9769 127.376 13.4322C128.237 14.1178 130.694 15.9749 132.866 16.4808C135.039 16.9867 139.543 17.9252 141.318 18.3377C143.093 18.7502 144.594 19.0772 144.594 19.0772C144.643 19.0822 144.688 19.0845 144.728 19.0845C145.034 19.0845 145.108 18.9519 145.215 18.8239C145.36 18.6514 145.457 18.5474 145.247 18.0576C144.988 17.4321 143.663 15.9714 141.84 14.6199C140.018 13.2684 128.468 4.68038 125.847 2.73423C123.225 0.788429 121.693 0.183141 120.982 0.0437999C120.835 0.0150442 120.717 0.00244141 120.619 0.00244141Z"></path>
<path fill="url(#paint31_linear_15852_13652)" d="M120.619 0.144445C120.711 0.144445 120.824 0.157402 120.955 0.183141C121.255 0.241894 121.79 0.403246 122.633 0.837953C123.545 1.30798 124.598 1.98445 125.762 2.84854C127.025 3.78594 130.408 6.30064 133.68 8.7328C137.186 11.3389 140.811 14.0336 141.756 14.7342C142.815 15.5198 143.576 16.2423 144.028 16.71C144.584 17.2855 144.99 17.8098 145.116 18.1123L145.116 18.113L145.116 18.1137C145.201 18.3099 145.236 18.448 145.224 18.5358C145.215 18.6004 145.191 18.6497 145.122 18.7317L145.116 18.7399C145.104 18.7532 145.094 18.7663 145.083 18.7796C144.997 18.8856 144.906 18.8775 144.699 18.8775C144.664 18.8775 144.627 18.8756 144.586 18.8717C144.303 18.8171 143.038 18.5916 141.35 18.1994C140.552 18.014 139.339 17.6487 137.907 17.3187C136.108 16.9043 134.108 16.529 132.912 16.2505C131.991 16.0359 130.919 15.5577 129.726 14.8288C128.73 14.22 127.902 13.5881 127.497 13.2655C126.812 12.7199 126.07 12.0537 125.222 11.0352C124.877 10.6161 124.618 10.1926 124.282 9.45895C123.311 7.33671 120.388 1.27089 120.348 1.18728C120.084 0.620511 120.098 0.558739 120.187 0.432356C120.205 0.407328 120.221 0.382478 120.236 0.358692C120.322 0.225031 120.374 0.144445 120.619 0.144445ZM120.619 0.00244141C120.244 0.00244141 120.185 0.188288 120.071 0.350527C119.927 0.555012 119.964 0.699145 120.22 1.24763C120.22 1.24763 123.133 7.39566 124.117 9.54559C124.441 10.2528 124.647 10.7378 125.012 11.1757C125.916 12.2619 126.805 12.9769 127.376 13.4322C128.237 14.1178 130.694 15.9749 132.866 16.4808C135.039 16.9867 139.543 17.9252 141.318 18.3377C143.093 18.7502 144.594 19.0772 144.594 19.0772C144.643 19.0822 144.688 19.0845 144.728 19.0845C145.034 19.0845 145.108 18.9519 145.215 18.8239C145.36 18.6514 145.457 18.5474 145.247 18.0576C144.988 17.4321 143.663 15.9714 141.84 14.6199C140.018 13.2684 128.468 4.68038 125.847 2.73423C123.225 0.788429 121.693 0.183141 120.982 0.0437999C120.835 0.0150442 120.717 0.00244141 120.619 0.00244141Z"></path>
<path fill="url(#paint32_linear_15852_13652)" d="M120.617 0.142513C120.709 0.142513 120.823 0.155562 120.955 0.181481C121.257 0.240648 121.795 0.403134 122.645 0.840898C123.563 1.31423 124.624 1.99546 125.796 2.86562C127.067 3.80961 130.474 6.34199 133.769 8.79125C137.3 11.4157 140.951 14.1293 141.902 14.8349C142.969 15.626 143.735 16.3535 144.19 16.8246C144.75 17.4041 145.159 17.9321 145.286 18.2367L145.286 18.2374L145.286 18.2381C145.371 18.4356 145.329 18.5199 145.317 18.6084C145.286 18.6728 145.274 18.716 145.205 18.7986L145.198 18.8068C145.187 18.8202 145.176 18.8335 145.165 18.8469C145.079 18.9536 145.027 19.0181 144.818 19.0181C144.783 19.0181 144.745 19.0161 144.705 19.0122C144.583 18.9856 143.193 18.7193 141.494 18.3245C140.69 18.1377 139.327 17.8236 137.885 17.4913C136.073 17.0739 134.085 16.7214 132.881 16.441C131.954 16.2248 130.874 15.7433 129.673 15.0093C128.67 14.3962 127.836 13.7599 127.428 13.4351C126.738 12.8856 125.93 12.2133 125.076 11.1876C124.734 10.7761 124.493 10.3684 124.155 9.62961C123.177 7.49245 120.384 1.27687 120.344 1.19268C120.078 0.621926 120.092 0.559721 120.182 0.432449C120.2 0.407245 120.215 0.38222 120.231 0.358267C120.318 0.223667 120.37 0.142513 120.617 0.142513ZM120.617 -0.000488281C120.239 -0.000488281 120.18 0.186665 120.065 0.350045C119.92 0.555967 119.957 0.701114 120.215 1.25346C120.215 1.25346 123.044 7.56176 124.035 9.72681C124.361 10.439 124.61 10.8758 124.977 11.3168C125.887 12.4106 126.773 13.1261 127.349 13.5846C128.216 14.275 130.672 16.1086 132.859 16.6181C135.047 17.1275 139.674 18.0483 141.461 18.4637C143.249 18.8791 144.682 19.1536 144.682 19.1536C144.732 19.1586 144.777 19.1609 144.818 19.1609C145.125 19.1609 145.2 19.0274 145.308 18.8985C145.454 18.7248 145.518 18.5788 145.383 18.1828C145.122 17.5529 143.788 16.082 141.952 14.7209C140.117 13.3599 128.521 4.71034 125.881 2.75051C123.241 0.791026 121.699 0.181481 120.982 0.041161C120.834 0.0122031 120.715 -0.000488281 120.617 -0.000488281Z"></path>
</g>
<circle fill="#00C3FF" r="6.99005" cy="47.1834" cx="199.799"></circle>
<defs>
<filter color-interpolation-filters="sRGB" filterUnits="userSpaceOnUse" height="18.6992" width="25.0376" y="0.0517578" x="120.223" id="filter0_i_15852_13652">
<feFlood result="BackgroundImageFix" flood-opacity="0"></feFlood>
<feBlend result="shape" in2="BackgroundImageFix" in="SourceGraphic" mode="normal"></feBlend>
<feColorMatrix result="hardAlpha" values="0 0 0 0 0 0 0 0 0 0 0 0 0 0 0 0 0 0 127 0" type="matrix" in="SourceAlpha"></feColorMatrix>
<feOffset></feOffset>
<feGaussianBlur stdDeviation="0.512888"></feGaussianBlur>
<feComposite k3="1" k2="-1" operator="arithmetic" in2="hardAlpha"></feComposite>
<feColorMatrix values="0 0 0 0 0.958383 0 0 0 0 0.998042 0 0 0 0 1 0 0 0 1 0" type="matrix"></feColorMatrix>
<feBlend result="effect1_innerShadow_15852_13652" in2="shape" mode="normal"></feBlend>
</filter>
<linearGradient gradientUnits="userSpaceOnUse" y2="41.8987" x2="127.076" y1="24.4391" x1="103.215" id="paint0_linear_15852_13652">
<stop stop-color="#FDA1FF"></stop>
<stop stop-color="#97C5FF" offset="1"></stop>
</linearGradient>
<linearGradient gradientUnits="userSpaceOnUse" y2="25.4026" x2="118.751" y1="17.3182" x1="123.615" id="paint1_linear_15852_13652">
<stop stop-color="#B78EFA" offset="0.49"></stop>
<stop stop-color="#8F6CCD" offset="1"></stop>
</linearGradient>
<linearGradient gradientUnits="userSpaceOnUse" y2="50.8795" x2="122.508" y1="25.1949" x1="107.863" id="paint2_linear_15852_13652">
<stop stop-color="#FDA1FF" offset="0.2"></stop>
<stop stop-color="#F3A4FF" offset="0.3"></stop>
<stop stop-color="#D9ADFF" offset="0.48"></stop>
<stop stop-color="#AFBCFF" offset="0.71"></stop>
<stop stop-color="#97C5FF" offset="0.83"></stop>
</linearGradient>
<radialGradient gradientTransform="translate(123.18 24.203) rotate(53.1) scale(3.06567 0.18394)" gradientUnits="userSpaceOnUse" r="1" cy="0" cx="0" id="paint3_radial_15852_13652">
<stop stop-color="white"></stop>
<stop stop-opacity="0" stop-color="white" offset="1"></stop>
</radialGradient>
<radialGradient gradientTransform="translate(123.057 24.2887) rotate(53.1) scale(3.06567 0.858388)" gradientUnits="userSpaceOnUse" r="1" cy="0" cx="0" id="paint4_radial_15852_13652">
<stop stop-color="white"></stop>
<stop stop-opacity="0" stop-color="white" offset="1"></stop>
</radialGradient>
<linearGradient gradientUnits="userSpaceOnUse" y2="55.2279" x2="117.393" y1="23.2663" x1="108.583" id="paint5_linear_15852_13652">
<stop stop-color="#EEBEFF"></stop>
<stop stop-color="#79EDFF" offset="1"></stop>
</linearGradient>
<linearGradient gradientUnits="userSpaceOnUse" y2="45.6433" x2="132.771" y1="23.1179" x1="137.874" id="paint6_linear_15852_13652">
<stop stop-color="#00B99A"></stop>
<stop stop-color="#009CBD" offset="1"></stop>
</linearGradient>
<linearGradient gradientUnits="userSpaceOnUse" y2="48.125" x2="128.701" y1="21.0249" x1="137.488" id="paint7_linear_15852_13652">
<stop stop-color="#00CC9E" offset="0.01"></stop>
<stop stop-color="#00884A" offset="0.22"></stop>
<stop stop-color="#008D64" offset="0.31"></stop>
<stop stop-color="#009A9D" offset="0.55"></stop>
<stop stop-color="#00A3C7" offset="0.75"></stop>
<stop stop-color="#00A8E1" offset="0.91"></stop>
<stop stop-color="#00ABEB" offset="1"></stop>
</linearGradient>
<linearGradient gradientUnits="userSpaceOnUse" y2="38.6935" x2="138.713" y1="21.977" x1="131.464" id="paint8_linear_15852_13652">
<stop stop-color="#3CE6AC"></stop>
<stop stop-color="#00E3FF" offset="1"></stop>
</linearGradient>
<radialGradient gradientTransform="translate(133.231 19.4371) scale(5.02955)" gradientUnits="userSpaceOnUse" r="1" cy="0" cx="0" id="paint9_radial_15852_13652">
<stop stop-color="white" offset="0.01"></stop>
<stop stop-opacity="0" stop-color="white" offset="1"></stop>
</radialGradient>
<radialGradient gradientTransform="translate(132.549 19.8656) scale(1.25874)" gradientUnits="userSpaceOnUse" r="1" cy="0" cx="0" id="paint10_radial_15852_13652">
<stop stop-color="white"></stop>
<stop stop-opacity="0" stop-color="white" offset="1"></stop>
</radialGradient>
<linearGradient gradientUnits="userSpaceOnUse" y2="34.4645" x2="146.967" y1="34.4645" x1="127.483" id="paint11_linear_15852_13652">
<stop stop-color="#00E4FF"></stop>
<stop stop-color="#00E3F7" offset="1"></stop>
</linearGradient>
<linearGradient gradientUnits="userSpaceOnUse" y2="19.8525" x2="108.861" y1="4.64006" x1="103.622" id="paint12_linear_15852_13652">
<stop stop-color="#00CDC2"></stop>
<stop stop-color="#288822" offset="1"></stop>
</linearGradient>
<linearGradient gradientUnits="userSpaceOnUse" y2="19.8561" x2="108.862" y1="4.70341" x1="103.644" id="paint13_linear_15852_13652">
<stop stop-color="#00CDC2"></stop>
<stop stop-color="#288822" offset="1"></stop>
</linearGradient>
<linearGradient gradientUnits="userSpaceOnUse" y2="19.4639" x2="108.672" y1="4.64789" x1="103.57" id="paint14_linear_15852_13652">
<stop stop-color="#00CDC3"></stop>
<stop stop-color="#4FDB5E" offset="1"></stop>
</linearGradient>
<radialGradient gradientTransform="translate(119.441 14.328) scale(13.1264)" gradientUnits="userSpaceOnUse" r="1" cy="0" cx="0" id="paint15_radial_15852_13652">
<stop stop-color="white"></stop>
<stop stop-opacity="0" stop-color="white" offset="1"></stop>
</radialGradient>
<radialGradient gradientTransform="translate(120.702 13.2532) rotate(96.4105) scale(5.43875 0.52924)" gradientUnits="userSpaceOnUse" r="1" cy="0" cx="0" id="paint16_radial_15852_13652">
<stop stop-color="white"></stop>
<stop stop-opacity="0" stop-color="white" offset="1"></stop>
</radialGradient>
<linearGradient gradientUnits="userSpaceOnUse" y2="21.2032" x2="109.429" y1="9.36362" x1="104.689" id="paint17_linear_15852_13652">
<stop stop-color="#00CDC3"></stop>
<stop stop-color="#4FDB5E" offset="1"></stop>
</linearGradient>
<radialGradient gradientTransform="translate(134.334 9.54362) scale(8.4712)" gradientUnits="userSpaceOnUse" r="1" cy="0" cx="0" id="paint18_radial_15852_13652">
<stop stop-color="#88D2FF"></stop>
<stop stop-color="#0079FF" offset="1"></stop>
</radialGradient>
<radialGradient gradientTransform="translate(130.889 9.54362) scale(12.0041)" gradientUnits="userSpaceOnUse" r="1" cy="0" cx="0" id="paint19_radial_15852_13652">
<stop stop-color="#88D2FF"></stop>
<stop stop-color="#0079FF" offset="1"></stop>
</radialGradient>
<linearGradient gradientUnits="userSpaceOnUse" y2="7.25708" x2="137.675" y1="11.8104" x1="127.233" id="paint20_linear_15852_13652">
<stop stop-color="#62C7FF" offset="0.04"></stop>
<stop stop-color="#D9B5FF" offset="0.79"></stop>
</linearGradient>
<linearGradient gradientUnits="userSpaceOnUse" y2="13.0802" x2="139.388" y1="9.74328" x1="130.704" id="paint21_linear_15852_13652">
<stop stop-opacity="0" stop-color="#C07DFF"></stop>
<stop stop-color="#A855F5" offset="1"></stop>
</linearGradient>
<radialGradient gradientTransform="translate(123.377 6.67391) rotate(61.8392) scale(5.04569 0.631267)" gradientUnits="userSpaceOnUse" r="1" cy="0" cx="0" id="paint22_radial_15852_13652">
<stop stop-color="#0079FF"></stop>
<stop stop-color="#0079FF" offset="1"></stop>
</radialGradient>
<radialGradient gradientTransform="translate(122.251 5.15334) rotate(64.3033) scale(5.57103 0.333671)" gradientUnits="userSpaceOnUse" r="1" cy="0" cx="0" id="paint23_radial_15852_13652">
<stop stop-color="#0079FF"></stop>
<stop stop-opacity="0" stop-color="#0079FF" offset="1"></stop>
</radialGradient>
<linearGradient gradientUnits="userSpaceOnUse" y2="18.7735" x2="144.86" y1="15.5501" x1="132.841" id="paint24_linear_15852_13652">
<stop stop-color="#0079FF"></stop>
<stop stop-opacity="0.5" stop-color="#0079FF" offset="1"></stop>
</linearGradient>
<radialGradient gradientTransform="translate(138.156 16.9233) rotate(13.66) scale(6.90491 0.138098)" gradientUnits="userSpaceOnUse" r="1" cy="0" cx="0" id="paint25_radial_15852_13652">
<stop stop-color="#CDA2FD"></stop>
<stop stop-opacity="0" stop-color="#0079FF" offset="1"></stop>
</radialGradient>
<radialGradient gradientTransform="translate(131.574 15.2161) rotate(20.2248) scale(2.40791 0.409344)" gradientUnits="userSpaceOnUse" r="1" cy="0" cx="0" id="paint26_radial_15852_13652">
<stop stop-color="white" offset="0.114841"></stop>
<stop stop-opacity="0" stop-color="white" offset="1"></stop>
</radialGradient>
<radialGradient gradientTransform="translate(126.282 10.2822) rotate(33.2544) scale(3.42927 0.97674)" gradientUnits="userSpaceOnUse" r="1" cy="0" cx="0" id="paint27_radial_15852_13652">
<stop stop-color="white"></stop>
<stop stop-opacity="0" stop-color="white" offset="1"></stop>
</radialGradient>
<radialGradient gradientTransform="translate(131.574 15.2161) rotate(20.2248) scale(2.40791 0.409344)" gradientUnits="userSpaceOnUse" r="1" cy="0" cx="0" id="paint28_radial_15852_13652">
<stop stop-color="white" offset="0.114841"></stop>
<stop stop-opacity="0" stop-color="white" offset="1"></stop>
</radialGradient>
<radialGradient gradientTransform="translate(137.906 17.3609) rotate(13.8887) scale(7.26034 0.303698)" gradientUnits="userSpaceOnUse" r="1" cy="0" cx="0" id="paint29_radial_15852_13652">
<stop stop-color="#0079FF"></stop>
<stop stop-opacity="0" stop-color="#0079FF" offset="1"></stop>
</radialGradient>
<linearGradient gradientUnits="userSpaceOnUse" y2="9.54364" x2="145.368" y1="9.54364" x1="119.987" id="paint30_linear_15852_13652">
<stop stop-color="#88D2FF"></stop>
<stop stop-color="#F6B6FF" offset="1"></stop>
</linearGradient>
<linearGradient gradientUnits="userSpaceOnUse" y2="8.79507" x2="132.637" y1="13.2864" x1="127.583" id="paint31_linear_15852_13652">
<stop stop-color="#0079FF"></stop>
<stop stop-opacity="0" stop-color="#0079FF" offset="1"></stop>
</linearGradient>
<linearGradient gradientUnits="userSpaceOnUse" y2="9.60779" x2="145.54" y1="9.60779" x1="119.98" id="paint32_linear_15852_13652">
<stop stop-color="#88D2FF"></stop>
<stop stop-color="#F6B6FF" offset="1"></stop>
</linearGradient>
<clipPath id="clip0_15852_13652">
<rect fill="white" height="86.8625" width="146.967"></rect>
</clipPath>
</defs>
</svg>
