<svg xmlns="http://www.w3.org/2000/svg" viewBox="0 0 220 44" width="220" height="44">
  <!-- Sound wave bars group -->
  <g transform="translate(8, 4)">
    <rect x="0" y="14" width="3.2" height="10" rx="1.6" fill="#7C5CFC"/>
    <rect x="5.5" y="8" width="3.2" height="22" rx="1.6" fill="#7C5CFC"/>
    <rect x="11" y="4" width="3.2" height="30" rx="1.6" fill="#8B6CF7"/>
    <rect x="16.5" y="10" width="3.2" height="18" rx="1.6" fill="#9B7DF8"/>
    <rect x="22" y="6" width="3.2" height="26" rx="1.6" fill="#8B6CF7"/>
    <rect x="27.5" y="2" width="3.2" height="34" rx="1.6" fill="#7C5CFC"/>
    <rect x="33" y="8" width="3.2" height="22" rx="1.6" fill="#7C5CFC"/>
    <rect x="38.5" y="4" width="3.2" height="30" rx="1.6" fill="#8B6CF7"/>
    <rect x="44" y="10" width="3.2" height="18" rx="1.6" fill="#9B7DF8"/>
    <rect x="49.5" y="6" width="3.2" height="26" rx="1.6" fill="#8B6CF7"/>
    <rect x="55" y="12" width="3.2" height="14" rx="1.6" fill="#7C5CFC"/>
  </g>
  <!-- Sonesse text -->
  <text x="78" y="30" font-family="'Inter Tight', 'Inter', Arial, sans-serif" font-size="24" font-weight="600" fill="#ffffff" letter-spacing="0.5">Sonesse</text>
</svg>
